       <svg
            version="1.1"
            id="Layer_1"
            xmlns="http://www.w3.org/2000/svg"
            xmlnsXlink="http://www.w3.org/1999/xlink"
            x="0px"
            y="0px"
            width="100%"
            viewBox="0 0 2048 2048"
            enableBackground="new 0 0 2048 2048"
            xmlSpace="preserve"
        >

            <path
                id="right"
                d="
M1833.999634,1662.500000 
	C1635.521118,1662.500000 1437.542847,1662.507812 1239.564453,1662.448486 
	C1235.274658,1662.447144 1230.989502,1661.417725 1226.694092,1661.345825 
	C1223.062500,1661.284790 1222.264404,1659.349365 1222.208740,1656.363770 
	C1221.985596,1644.397461 1221.508423,1632.430786 1221.542114,1620.465454 
	C1221.652344,1581.321167 1221.948242,1542.177612 1222.167603,1503.033691 
	C1222.503418,1443.066772 1222.813843,1383.099731 1223.174683,1323.132935 
	C1223.476318,1272.998169 1223.836548,1222.863525 1224.167603,1172.728882 
	C1224.503174,1121.927612 1225.339478,1071.123169 1225.014038,1020.326111 
	C1224.736084,976.917786 1223.172363,933.516724 1222.077759,890.114990 
	C1221.561768,869.661743 1220.879272,849.211914 1220.107178,828.766785 
	C1219.964966,824.999023 1220.879517,822.357422 1223.980347,819.887085 
	C1243.204590,804.571533 1251.129883,782.860413 1257.018799,760.151184 
	C1265.144531,728.816772 1267.735596,696.762268 1269.202515,664.553284 
	C1270.991943,625.260315 1270.393188,585.958801 1266.630249,546.874939 
	C1264.669189,526.505981 1260.126831,506.172241 1254.657837,486.401489 
	C1245.006348,451.511169 1233.896362,417.019257 1223.094727,382.455048 
	C1219.245117,370.136536 1214.518066,358.092285 1209.724854,344.610870 
	C1220.047729,339.426605 1229.625000,333.982452 1239.686768,329.668549 
	C1296.205933,305.436768 1355.676636,290.262665 1414.530151,273.218781 
	C1428.561523,269.155304 1442.755127,265.653473 1456.806519,261.655975 
	C1459.841919,260.792450 1461.236206,261.858276 1462.889404,264.081726 
	C1469.109375,272.447235 1475.355103,280.802979 1481.879517,288.930878 
	C1495.509644,305.910461 1513.802246,314.996246 1534.800293,318.835480 
	C1569.486816,325.177490 1604.548462,325.922058 1639.649536,324.451447 
	C1656.738037,323.735504 1673.853516,322.453156 1690.818481,320.324127 
	C1709.436646,317.987671 1727.449097,312.789032 1741.616455,299.674683 
	C1749.603516,292.281342 1756.246826,283.423523 1763.373657,275.120819 
	C1765.746948,272.356018 1768.171021,269.485718 1769.812256,266.275269 
	C1772.504395,261.009766 1776.322998,260.939941 1781.236816,262.347015 
	C1803.462158,268.711426 1825.799927,274.689240 1847.973511,281.226166 
	C1878.832153,290.323486 1909.789062,299.167999 1940.306396,309.316315 
	C1962.540161,316.709930 1984.206909,325.848724 2005.956787,334.629761 
	C2011.420898,336.835724 2016.381104,340.447144 2021.236206,343.887695 
	C2022.382812,344.700256 2022.937134,347.668182 2022.455933,349.245422 
	C2019.180542,359.978210 2015.482544,370.580811 2012.056152,381.268799 
	C1999.685181,419.858398 1990.079468,459.164978 1981.003174,498.642548 
	C1972.327515,536.377197 1968.547119,574.570984 1967.467407,613.159607 
	C1966.382202,651.947754 1966.100220,690.710205 1970.018311,729.377563 
	C1972.384155,752.726746 1975.997681,775.846191 1983.836182,798.103027 
	C1989.331299,813.705872 1997.102783,827.757385 2010.588623,838.061462 
	C2011.900513,839.063782 2012.920288,841.376831 2012.893555,843.062866 
	C2012.529785,866.186401 2012.005859,889.307922 2011.421387,912.427429 
	C2010.963257,930.553040 2010.104004,948.672058 2009.887939,966.799561 
	C2009.473267,1001.594910 2009.146729,1036.394653 2009.223511,1071.191772 
	C2009.337280,1122.826782 2009.808838,1174.460938 2010.174561,1226.095337 
	C2010.469360,1267.731201 2010.886353,1309.366211 2011.153809,1351.002319 
	C2011.536865,1410.635620 2011.807373,1470.269531 2012.175903,1529.903076 
	C2012.402344,1566.542847 2012.783081,1603.181763 2012.944824,1639.821777 
	C2012.974731,1646.612549 2012.290771,1653.406372 2011.901001,1660.877563 
	C2006.390625,1661.438721 2001.180908,1662.419434 1995.969116,1662.430420 
	C1942.146240,1662.543457 1888.322876,1662.499878 1833.999634,1662.500000 
z"/>
            <path
                id="left"
                d="
M60.908680,388.829529 
	C87.970215,375.264557 115.925385,364.860107 144.143753,355.207428 
	C185.361832,341.107910 226.738953,327.473175 268.052277,313.652283 
	C283.163696,308.596924 283.574951,308.700439 289.275909,323.316254 
	C298.024811,345.746063 314.559479,360.139130 336.202820,369.381439 
	C353.605499,376.812897 371.943756,380.267242 390.652679,382.004883 
	C402.629700,383.117340 414.667358,385.012817 426.621368,384.657501 
	C457.738739,383.732574 488.889832,382.134277 518.438782,370.635284 
	C541.705688,361.581055 559.394958,346.599335 568.837952,322.911194 
	C570.307251,319.225586 571.943115,315.606110 573.526733,311.966797 
	C573.783264,311.377197 574.169556,310.844147 575.042603,309.347961 
	C589.354858,313.918793 603.822449,318.380646 618.184937,323.158539 
	C649.943115,333.723328 681.794128,344.037170 713.326355,355.243622 
	C736.025391,363.310669 758.337891,372.487427 780.691284,381.495483 
	C792.732117,386.347748 804.568237,391.707581 814.773193,400.081085 
	C816.783020,401.730194 817.318787,402.821960 816.455444,405.285339 
	C811.223267,420.213593 805.954407,435.135071 801.100952,450.188812 
	C787.168884,493.401764 774.547729,537.003967 765.315857,581.476196 
	C761.896851,597.946289 760.105835,614.777832 758.059082,631.504150 
	C754.221863,662.862000 753.776733,694.432007 755.273010,725.884216 
	C756.762329,757.191467 760.749268,788.317261 774.331848,817.258545 
	C781.854126,833.286804 793.526184,844.951294 810.413574,850.850708 
	C813.991089,852.100342 815.180176,853.852783 815.087769,857.651978 
	C814.574402,878.766785 814.057983,899.889282 814.122314,921.007324 
	C814.157471,932.552856 815.731934,944.088562 815.914917,955.639771 
	C816.263245,977.622681 816.040588,999.613892 816.181702,1021.600891 
	C816.465027,1065.736572 816.812622,1109.871826 817.173218,1154.006958 
	C817.475281,1190.977051 817.835876,1227.946777 818.166199,1264.916626 
	C818.502502,1302.553101 818.833008,1340.189575 819.167053,1377.826050 
	C819.499634,1415.295898 819.833557,1452.765625 820.166809,1490.235474 
	C820.500122,1527.705322 820.807190,1565.175415 821.183044,1602.644897 
	C821.294861,1613.793701 821.821472,1624.942749 821.722778,1636.087769 
	C821.673767,1641.627441 820.640076,1647.158569 819.988403,1653.290527 
	C814.137329,1653.812500 808.423706,1654.766479 802.709900,1654.768066 
	C553.570068,1654.842285 304.430237,1654.844116 55.290443,1654.761841 
	C49.261166,1654.759766 43.232231,1653.708008 37.168018,1653.142700 
	C37.168018,1607.751099 37.037918,1563.037109 37.204712,1518.324219 
	C37.370594,1473.854492 37.813210,1429.385864 38.174854,1384.916870 
	C38.475513,1347.946777 38.837067,1310.977051 39.167393,1274.007202 
	C39.503677,1236.370728 39.898987,1198.734741 40.152390,1161.097656 
	C40.493282,1110.466431 40.660339,1059.833862 41.028793,1009.202881 
	C41.194431,986.442505 41.627495,963.683655 42.019493,940.925476 
	C42.182194,931.479858 42.928978,922.030701 42.748806,912.595764 
	C42.439217,896.383789 41.675354,880.178772 40.945637,863.977905 
	C40.801010,860.766968 41.772141,858.907593 44.641453,857.219849 
	C61.936142,847.047180 71.674072,830.937500 79.131805,812.978699 
	C92.086578,781.782593 98.256477,749.027222 102.204605,715.699036 
	C106.015038,683.533203 107.395058,651.288147 105.979774,618.932800 
	C104.790146,591.736450 98.426239,565.519958 90.532761,539.628357 
	C79.594215,503.748627 66.863251,468.516663 52.230072,433.967712 
	C47.843376,423.610718 43.961311,413.039948 39.460854,401.581238 
	C46.841038,397.174835 53.703419,393.077606 60.908680,388.829529 
z"/>
            <path
                id="heel"
                d="
M696.996338,2021.166748 
	C672.866943,2020.721802 649.239319,2020.158203 625.608337,2019.858276 
	C583.318848,2019.321655 541.028320,2018.767822 498.736511,2018.548950 
	C455.769501,2018.326660 412.799072,2018.284424 369.832764,2018.564331 
	C330.879517,2018.817993 291.923859,2019.350098 252.980118,2020.235840 
	C208.248993,2021.253174 163.530304,2022.812866 118.804611,2024.080933 
	C114.317406,2024.208130 109.803978,2023.685913 105.330750,2023.946289 
	C101.516670,2024.168457 99.902794,2022.456421 99.181313,2019.039917 
	C95.577713,2001.975586 91.742798,1984.958252 88.310104,1967.860107 
	C82.814957,1940.488770 77.074181,1913.151489 72.390228,1885.637573 
	C69.007408,1865.766602 66.920296,1870.173828 84.882904,1863.051392 
	C129.142471,1845.501953 170.170242,1822.237183 208.967178,1794.919312 
	C235.714340,1776.086182 261.961853,1756.545044 288.541534,1737.471924 
	C318.345306,1716.085083 350.110779,1698.766846 386.405731,1690.976074 
	C415.977875,1684.628540 445.655792,1684.001709 475.556458,1688.461792 
	C498.220581,1691.842529 520.427917,1696.980713 542.039429,1704.554077 
	C584.147095,1719.310181 621.650452,1742.233765 656.754517,1769.430176 
	C676.042419,1784.373535 695.043335,1799.760376 715.054626,1813.681030 
	C752.387207,1839.651123 794.042725,1855.795044 838.467468,1865.050903 
	C842.639648,1865.920166 846.653137,1867.551270 851.817078,1869.165283 
	C850.139648,1879.513794 848.753662,1889.801025 846.772705,1899.972534 
	C839.679749,1936.392578 832.830017,1972.869751 824.977417,2009.128174 
	C821.109192,2026.989136 824.255615,2024.136230 806.751038,2023.969238 
	C772.326599,2023.641357 737.913086,2022.165527 703.494812,2021.176514 
	C701.496948,2021.119019 699.496033,2021.167480 696.996338,2021.166748 
z"/>
            <path
                id="toe"
                d="
M1238.766846,1704.556641 
	C1272.874390,1692.938599 1307.416748,1685.743530 1343.164795,1685.544922 
	C1387.893921,1685.296265 1429.537109,1696.836182 1467.037354,1721.152222 
	C1492.236816,1737.492188 1516.542603,1755.250732 1540.823975,1772.956665 
	C1577.623169,1799.790771 1615.156006,1825.439087 1656.177612,1845.450317 
	C1673.271973,1853.789185 1691.006592,1860.815430 1708.447876,1868.443481 
	C1709.042725,1868.703613 1709.614380,1869.017090 1711.160645,1869.783203 
	C1708.814697,1882.771851 1706.589600,1895.971680 1704.027222,1909.105957 
	C1697.432861,1942.908447 1690.717773,1976.687500 1683.964355,2010.458618 
	C1683.222534,2014.168091 1682.226318,2017.899902 1680.714478,2021.343140 
	C1680.165649,2022.592896 1677.768799,2023.714355 1676.205933,2023.726440 
	C1664.896362,2023.814331 1653.581299,2023.733154 1642.274048,2023.456421 
	C1624.316284,2023.016846 1606.366455,2022.203735 1588.407349,2021.864990 
	C1530.667480,2020.775757 1472.927246,2019.639160 1415.182373,2018.895142 
	C1372.716675,2018.348022 1330.243164,2018.192383 1287.773315,2018.228516 
	C1253.474609,2018.257568 1219.172119,2018.604248 1184.878784,2019.221191 
	C1134.976685,2020.118652 1085.081543,2021.408691 1035.182495,2022.485474 
	C1011.734070,2022.991577 988.281677,2023.323853 964.835205,2023.901611 
	C960.727783,2024.002686 958.927368,2022.378296 958.137085,2018.489136 
	C952.848022,1992.458862 947.372375,1966.466431 942.078674,1940.437134 
	C938.467773,1922.682007 934.944580,1904.907349 931.613770,1887.098145 
	C930.523560,1881.269165 930.161987,1875.303833 929.365723,1868.538330 
	C939.637085,1865.959961 949.393555,1863.444336 959.183167,1861.064819 
	C1004.722900,1849.995605 1045.838989,1829.608398 1083.217163,1801.620239 
	C1102.021240,1787.540405 1119.978027,1772.321777 1138.886963,1758.390259 
	C1169.489624,1735.842773 1202.443481,1717.424194 1238.766846,1704.556641 
z"/>
            <path
                id="top"
                d="
M1412.000000,115.166786 
	C1160.031982,115.051941 908.563965,114.941040 657.095947,114.776772 
	C653.985291,114.774742 650.874939,114.088440 647.595886,113.701653 
	C644.138916,102.181999 644.120789,90.820915 647.544861,79.495857 
	C662.930969,77.261284 1437.008423,77.184219 1453.901123,79.386299 
	C1457.312500,89.761192 1457.374878,100.239082 1454.866577,110.826126 
	C1454.339722,113.050278 1453.466553,114.104752 1450.922607,114.148369 
	C1438.113037,114.367973 1425.307129,114.805656 1412.000000,115.166786 
z"/>
        </svg>