<?xml version="1.0" encoding="utf-8"?>
<!-- Generator: Adobe Illustrator 26.0.1, SVG Export Plug-In . SVG Version: 6.00 Build 0)  -->
<svg version="1.1" xmlns="http://www.w3.org/2000/svg" xmlns:xlink="http://www.w3.org/1999/xlink" x="0px" y="0px"
	 viewBox="0 0 2048 2048" style="enable-background:new 0 0 2048 2048;" xml:space="preserve">
<style type="text/css">
	.st0{fill:#FFFFFF;stroke:#000000;stroke-miterlimit:10;}
	.st1{display:none;}
	.st2{display:inline;}
	.st3{display:inline;fill:#FFFFFF;}
</style>
<g id="Layer_2">
	<path id="right" class="st0" d="M1049.8,959.5c0-118,0-236,0-354c0-4.7,0.2-9.3,1.4-13.9c0.7-2.6,2-4.4,4.3-5.5
		c2.6-1.2,5.1-2.7,7.9-3.6c17.7-5.7,30-17.5,38.7-33.6c5.9-11,9.9-22.8,13.1-34.8c3.2-12,5.3-24.2,7-36.6c1.7-12.8,2.9-25.6,4-38.4
		c3.2-39.5,2.6-79,2.3-118.5c-0.1-18.7-0.9-37.3-1.5-55.9c-0.3-10.2-0.9-20.4-1.2-30.6c-0.1-3.1,0.1-6.2,0.3-9.3c0.3-4,2-7.3,5.9-9
		c3.4-1.5,6.8-3.2,10.4-4.4c29.1-9.5,58.3-18.8,87.4-28.2c36.8-11.8,73.5-23.7,110.3-35.6c3.9-1.3,7.7-1.8,11.8-1.9
		c2.8-0.1,5.2,0.6,7.2,2.7c1.5,1.6,3.3,3,4.6,4.8c2.9,4.2,7,6.7,11.5,8.8c8,3.7,16.5,5.2,25,6.5c24.7,3.5,49.5,4.1,74.4,4
		c21.3-0.1,42.7,0,64-0.2c12.7-0.2,25.3-0.6,37.9-1.4c13.3-0.9,26.5-2.4,39.7-3.9c12.4-1.4,23.7-5.5,33.5-13.5
		c1.7-1.4,3.6-2.6,5.3-4c5.1-4.2,10.8-4.8,17-3.2c1.7,0.4,3.4,1.1,5.1,1.6c52.8,17.7,105.7,35.3,158.5,53c11.8,3.9,23.6,7.9,35.3,12
		c3.5,1.2,6.9,3.1,10.2,4.7c2.3,1.1,3.8,3,4.2,5.6c0.4,2.4,1,4.8,1,7.2c-0.1,5.8-0.5,11.5-0.9,17.3c0,0.7-0.2,1.3-0.2,2
		c-0.6,9.8-1.1,19.5-1.7,29.3c-0.6,9.7-1.4,19.5-2.1,29.2c-0.1,1.3-0.2,2.7-0.3,4c-0.4,7.3-0.9,14.6-1.2,21.9
		c-1.5,32.4-2.5,64.8-1.4,97.3c0.7,20.9,2.7,41.6,7.7,62c3.8,15.6,9.4,30.5,17.9,44.3c11.6,18.7,27.7,32.8,46.5,44
		c3.4,2,6.6,4.4,9.9,6.7c1.9,1.3,3,3.2,3.3,5.6c0.3,3.1,0.8,6.1,1.1,9.2c0.1,1.3,0,2.7,0,4c0,235.5,0,471.1,0,706.6
		c0,5.1-0.2,10.2-2.2,15c-1,2.5-2.4,4.3-5,4.9c-3.2,0.8-6.5,1.5-9.8,2c-2.4,0.3-4.9,0.1-7.3,0.1c-51.6,0-103.1-0.6-154.7,0.1
		c-79.1,1.1-158.2,0.3-237.3,0.5c-79.1,0.2-158.2,0-237.3,0c-79.1,0-158.2,0-237.3,0.1c-5.6,0-11-0.8-16.4-2.5c-3.3-1-5.4-3-6.2-6.3
		c-0.7-3-1.3-6.1-1.6-9.1c-0.3-2.4-0.1-4.9-0.1-7.3C1049.8,1194.2,1049.8,1076.9,1049.8,959.5z"/>
	<path id="left" class="st0" d="M87,959.6c0-117.8,0-235.5,0-353.3c0-4.9-0.1-9.7,1.3-14.5c0.8-2.5,1.9-4.5,4.3-5.6
		c2.8-1.3,5.6-2.6,8.5-3.9c4.2-1.9,8.6-3.5,12.7-5.8c11.2-6.2,19-15.9,25.1-27c6.2-11.4,10.4-23.5,13.7-36c4-15.3,6.4-30.8,8.1-46.5
		c2.1-18.5,3.1-37.1,4.1-55.8c1.7-34.2,1-68.4,0.7-102.6c-0.1-13.5-0.7-27.1-1.2-40.6c-0.4-11.1-1-22.2-1.3-33.3
		c-0.1-3.5,0.1-7.1,0.4-10.6c0.3-3.5,1.9-6.4,5.2-8c2.6-1.3,5.1-2.8,7.8-3.7c37.8-12.3,75.6-24.5,113.4-36.7
		c28.9-9.3,57.9-18.6,86.8-28c4.5-1.5,9.1-2,13.8-1.8c3.4,0.2,5.7,1.7,7.4,4.8c3.3,6.3,3.8,13.1,4.5,20
		c3.2,31.1,11.8,60.5,28.5,87.2c10.2,16.4,23.1,30.4,39.3,41.1c16.5,11,34.6,17.6,54.4,20.4c9.9,1.4,19.5,0.8,29.2-0.5
		c14.8-2,29.1-5.8,42.9-11.8c20.4-8.8,37.4-22,51.3-39.4c10.3-13,18.2-27.3,24.5-42.6c8.1-19.8,13.5-40.4,16.5-61.6
		c0.7-4.9,2.5-9.4,5-13.7c1.6-2.8,3.9-4,7.1-4c4.7-0.1,9.2,0.5,13.7,2c39.5,13.3,79.1,26.5,118.7,39.8c24.6,8.3,49.2,16.5,73.8,24.9
		c3.8,1.3,7.3,3.1,10.9,4.8c2.6,1.2,4,3.2,4.7,6c1.1,3.9,1.2,7.9,1.2,11.9c0.1,23.6,0,47.1,0.2,70.7c0.2,20.7,0.6,41.3,1.1,62
		c0.2,10.4,0.6,20.9,1.3,31.3c1.1,15.3,2.2,30.6,3.9,45.8c2.1,18.5,5.2,36.9,10.5,54.8c8.9,30.2,24,56.8,46.9,78.6
		c2.7,2.6,5.3,5.4,8.2,7.8c4.2,3.6,5.8,8.3,6,13.6c0.1,2.7,0.1,5.3,0.1,8c0,210,0,420,0,630c0,26-0.1,52,0,78
		c0,4.8-0.9,9.2-2.5,13.7c-0.7,2.1-2,3.6-4,4.1c-3.2,0.9-6.4,1.7-9.7,2.2c-2.6,0.4-5.3,0.2-8,0.2c-48.9,0-97.8-0.6-146.7,0.1
		c-80,1.1-160,0.3-240,0.5c-80,0.2-160,0-240,0s-160,0-240,0.1c-5.6,0-11-0.8-16.4-2.5c-3.1-0.9-5-2.7-6.1-5.6c-1-2.9-2-5.9-1.9-9.1
		c0.1-2.7,0-5.3,0-8C87,1194.3,87,1076.9,87,959.6z"/>
	<path id="bottom" class="st0" d="M1026,1406.7c292.6,0,585.3,0,877.9,0c5.3,0,10.6,0,15.8,1.5c3.6,1.1,5.7,2.8,6.8,6.5
		c1.3,4.5,2.4,9,2.3,13.7c-0.2,6.9-0.1,13.8,0,20.7c0.1,4.6-1.2,8.7-2.6,13c-0.8,2.6-2.6,4.2-5,4.9c-3,0.9-6,1.6-9.1,2
		c-2.6,0.3-5.3,0.2-8,0.2c-585.3,0-1170.5,0-1755.8,0c-5.3,0-10.6,0.1-15.8-1.6c-3.5-1.1-5.9-3-6.7-6.7c-0.6-3-1.5-6.1-1.5-9.1
		c-0.2-9.1,0-18.2-0.1-27.3c0-3.8,0.9-7.5,2.2-11c0.8-2.2,2.3-3.9,4.6-4.5c3.4-0.9,6.9-1.6,10.4-2c2.9-0.3,5.8-0.1,8.7-0.1
		C442,1406.7,734,1406.7,1026,1406.7z"/>
	<path id="collar" class="st0" d="M1026,74.3c-139.5,0-279.1,0-418.6,0c-5.1,0-10.2-0.1-15.1-1.8c-3.2-1.1-5.2-3-6.2-6.3
		c-2.2-6.5-2.3-26.5-0.1-32.9c1.2-3.7,3.4-6.2,7.2-7.1c3.2-0.8,6.4-1.9,9.8-1.6c1.3,0.1,2.7,0,4,0c279.7,0,559.5,0,839.2,0
		c4.9,0,9.7,0.2,14.4,2c2.9,1.2,5.1,2.8,5.7,5.9c0.7,3,1.5,6.1,1.7,9.1c0.3,5.3,0.3,10.7,0,16c-0.2,3.1-1.1,6.1-1.7,9.1
		c-0.8,3.4-3.2,5.2-6.4,6.1c-3.4,0.9-6.9,1.9-10.5,1.7c-1.8-0.1-3.6,0-5.3,0C1304.6,74.3,1165.3,74.3,1026,74.3z M608.8,81.6
		c-3.1,0-6.2-0.2-9.3,0.1c-10.4,1.1-14.2,3.6-15,15.5c-0.4,6,0,12-0.1,18c0,3.2,0.9,6.1,2.2,9c1,2.4,2.7,3.8,5.2,4.8
		c5.1,1.9,10.3,2.4,15.7,2.4c279,0,558.1,0,837.1,0c0.9,0,1.8-0.1,2.7,0c3.6,0.3,7-0.8,10.5-1.5c6.3-1.1,8.9-5.2,9.7-11
		c0.2-1.1,0.3-2.2,0.3-3.3c0-6.4,0.4-12.9-0.1-19.3c-0.8-11.1-4.2-12.7-13.8-14.5c-1.3-0.2-2.7-0.2-4-0.2c-2.4,0-4.9,0-7.3,0
		c-138.6,0-277.3,0-415.9,0C887.4,81.6,748.1,81.6,608.8,81.6z"/>
	<path id="left-sleeve_00000018229975118279668960000008221957603710628282_" class="st0" d="M1508,1955.4c-86.2,0-172.4,0-258.6,0
		c-4.3,0-8.4-0.5-12.5-1.3c-3.3-0.6-5.9-2.2-7.5-5c-1.7-2.9-3.2-5.8-4.5-8.9c-9.1-22.9-18.1-45.8-27.1-68.8
		c-16.2-41.1-32.3-82.2-48.5-123.3c-1.1-2.9-2.2-5.8-3.4-8.7c-1.8-4.2-1.6-8.7-2.4-13c-0.4-2.1,0.9-3.8,2.5-5.2
		c3.2-2.7,6.4-5.4,10.4-7.2c8.9-4,17.7-8.2,26.6-12.3c30.3-14.1,59.4-30.2,86-50.5c15-11.4,30-23,45-34.4
		c13.2-10.1,26.6-20.1,40.6-29.2c23.2-15.1,48.3-26.3,74.5-35.1c12.8-4.3,25.8-8.1,39.3-10c6.4-0.9,12.8-1.7,19.2-2.1
		c9.8-0.6,19.5-0.7,29.3-0.2c15.4,0.9,30.4,3.4,45.2,7.6c37.8,10.8,72.2,28.7,102.9,53.1c17.4,13.8,34.1,28.5,51.1,42.8
		c17,14.3,34.6,27.8,53.9,39c18.4,10.6,37.9,18.5,58.3,24.2c8.8,2.4,17.6,4.6,26.4,6.8c4.6,1.1,8.7,3.2,12.6,5.8
		c2,1.3,3.1,3.1,3.1,5.6c0,5.3-0.4,10.5-2.4,15.6c-19,49.1-37.7,98.2-56.6,147.3c-6.7,17.4-13.3,34.8-20.1,52.2
		c-1.3,3.3-3.2,6.3-4.9,9.4c-1.4,2.5-3.7,3.7-6.4,4.2c-4.1,0.7-8.3,1.4-12.5,1.4c-57.1-0.1-114.2,0-171.3,0
		C1566.7,1955.4,1537.4,1955.4,1508,1955.4z M1233.5,1961.7c-5.7,0-11,1.1-16.1,3.4c-2.9,1.3-4.5,3.5-4.7,6.7
		c-0.3,4.3,0,8.4,1.6,12.4c3.7,9.3,7.2,18.6,11,27.9c0.9,2.2,2.4,4.3,3.5,6.4c1.5,2.7,3.9,4.2,6.9,4.7c4.4,0.8,8.7,1.5,13.2,1.5
		c172.2-0.1,344.3,0,516.5-0.1c3.5,0,7-0.9,10.6-1c6.3-0.1,9.5-4,12-9c0.7-1.4,1.3-2.8,1.8-4.3c3-7.7,5.7-15.4,8.9-23
		c2.4-5.6,2.3-11.2,2.2-17c-0.1-2.5-1.3-4.1-3.6-5.1c-5.3-2.4-10.8-3.7-16.7-3.7c-91.1,0.1-182.2,0.1-273.2,0.1
		C1416.1,1961.8,1324.8,1961.8,1233.5,1961.7z"/>
	<path id="right-sleeve_00000065044763828982669170000015931324392930518666_" class="st0" d="M543.4,1955.4
		c-86.4,0-172.9,0-259.3,0c-4.3,0-8.4-0.6-12.5-1.5c-3-0.6-5.4-2.1-6.8-4.9c-1.5-2.9-3.1-5.9-4.3-9c-9.3-24-18.6-48-27.8-72.1
		c-16.2-42.3-32.3-84.6-48.7-126.8c-2-5.2-2.3-10.3-2.4-15.6c0-2.7,1.1-4.7,3.3-6.1c3.7-2.4,7.6-4.4,12-5.5c11.8-3,23.7-6,35.3-9.5
		c27.3-8.2,52.1-21.4,75.1-38.1c17.1-12.4,33-26.3,49-40.1c12.3-10.6,24.6-21.1,37.7-30.8c27.8-20.5,58-36.1,91-46.2
		c12.1-3.7,24.5-6.2,37.1-7.8c16-2.1,32-1.9,47.9-0.7c12.6,1,25,3.6,37.2,7c42.1,12,80.7,31,115.5,57.8
		c19.2,14.8,38.4,29.5,57.7,44.1c21.1,16,43.5,30.1,67.3,41.7c15.6,7.6,31.2,15,46.9,22.3c3.9,1.8,7.3,4.1,10.5,7
		c1.9,1.8,2.8,3.9,2.7,6.5c-0.2,4.5-0.6,8.8-2.3,13c-7.2,17.9-14.2,35.9-21.2,53.9c-18.9,48.1-37.8,96.3-56.8,144.4
		c-1.4,3.5-3.1,6.9-4.9,10.2c-1.7,3.1-4.3,4.7-7.9,5.4c-4.2,0.8-8.3,1.2-12.6,1.2C715.8,1955.4,629.6,1955.4,543.4,1955.4z
		 M802.2,2024.7c3.5,0,7-0.8,10.6-0.8c7.1-0.1,10.6-4.7,13.2-10.4c0.6-1.4,1.2-2.9,1.7-4.3c2.6-6.8,5.1-13.8,8-20.5
		c2.4-5.5,2.7-11.1,2.7-16.9c0-3.7-1.8-5.6-5-7c-5.2-2.3-10.5-3-16.2-3c-155.9,0.1-311.9,0.1-467.8,0.1c-26.7,0-53.3,0.1-80-0.1
		c-5.3,0-10,1.5-14.7,3.5c-3.3,1.4-4.9,4-4.6,7.4c0.4,4.8,0.7,9.7,2.5,14.4c3.3,8.2,6.4,16.5,9.8,24.8c1,2.4,2.6,4.7,3.8,7
		c1.5,2.8,4,4.1,7,4.6c4.6,0.9,9.2,1.5,13.9,1.5c85.7-0.1,171.5,0,257.2,0C630.2,2024.7,716.2,2024.7,802.2,2024.7z"/>
</g>
<g id="Layer_1" class="st1">
	<path class="st2" d="M0,0c682.7,0,1365.3,0,2048,0c0,682.7,0,1365.3,0,2048c-682.7,0-1365.3,0-2048,0C0,1365.3,0,682.7,0,0z
		 M540.8,1514c0.4-1,1-2,1.2-3.1c0.8-3.7-0.2-5.5-3.8-6.4c-2.1-0.5-4.4-0.8-6.5-1.2c-1.1-0.2-2.2-0.2-3.3-0.6
		c-3.2-1-3.8-3.2-1.9-6.1c0.4-0.6,1.6-0.9,0.7-2.3c-0.7,0.3-1.6,0.5-2.3,1c-1.7,1.2-3.2,2.6-2.6,4.9c0.5,2.1,2.2,3.4,4.1,4
		c1.5,0.5,3,0.6,4.6,0.8C538.9,1506,539.2,1506.3,540.8,1514c-1.7,0-3.4-0.3-5.2-0.1c-4.1,0.4-7.8-0.3-10.9-3.2c-0.3-0.3-1,0-2.1,0
		c2,3.4,4.7,4.4,7.9,4.8C534.1,1515.9,537.4,1514.7,540.8,1514z M1049.8,959.5c0,117.3,0,234.7,0,352c0,2.4-0.2,4.9,0.1,7.3
		c0.3,3.1,0.8,6.1,1.6,9.1c0.8,3.2,2.9,5.3,6.2,6.3c5.4,1.7,10.7,2.5,16.4,2.5c79.1-0.1,158.2-0.1,237.3-0.1
		c79.1,0,158.2,0.2,237.3,0c79.1-0.2,158.2,0.6,237.3-0.5c51.5-0.7,103.1-0.1,154.7-0.1c2.4,0,4.9,0.2,7.3-0.1
		c3.3-0.4,6.5-1.2,9.8-2c2.6-0.6,3.9-2.5,5-4.9c2-4.9,2.2-9.9,2.2-15c0-235.5,0-471.1,0-706.6c0-1.3,0.1-2.7,0-4
		c-0.3-3.1-0.8-6.1-1.1-9.2c-0.2-2.4-1.4-4.2-3.3-5.6c-3.2-2.3-6.5-4.7-9.9-6.7c-18.8-11.2-34.9-25.3-46.5-44
		c-8.5-13.7-14.1-28.6-17.9-44.3c-5-20.4-7-41.1-7.7-62c-1.1-32.4-0.1-64.9,1.4-97.3c0.3-7.3,0.8-14.6,1.2-21.9
		c0.1-1.3,0.2-2.7,0.3-4c0.7-9.7,1.4-19.5,2.1-29.2c0.6-9.7,1.1-19.5,1.7-29.3c0-0.7,0.2-1.3,0.2-2c0.3-5.8,0.7-11.5,0.9-17.3
		c0-2.4-0.6-4.8-1-7.2c-0.4-2.6-1.9-4.5-4.2-5.6c-3.4-1.7-6.7-3.5-10.2-4.7c-11.7-4.1-23.5-8.1-35.3-12
		c-52.8-17.7-105.7-35.3-158.5-53c-1.7-0.6-3.4-1.2-5.1-1.6c-6.1-1.6-11.9-1-17,3.2c-1.7,1.4-3.6,2.6-5.3,4
		c-9.8,8-21.1,12.1-33.5,13.5c-13.2,1.5-26.5,2.9-39.7,3.9c-12.6,0.9-25.3,1.3-37.9,1.4c-21.3,0.3-42.7,0.1-64,0.2
		c-24.9,0.1-49.7-0.6-74.4-4c-8.6-1.2-17.1-2.8-25-6.5c-4.5-2.1-8.6-4.6-11.5-8.8c-1.2-1.8-3.1-3.2-4.6-4.8c-2-2.2-4.4-2.8-7.2-2.7
		c-4,0.1-7.9,0.6-11.8,1.9c-36.7,11.9-73.5,23.7-110.3,35.6c-29.2,9.4-58.3,18.7-87.4,28.2c-3.6,1.2-6.9,2.9-10.4,4.4
		c-3.9,1.7-5.6,5-5.9,9c-0.3,3.1-0.4,6.2-0.3,9.3c0.3,10.2,0.9,20.4,1.2,30.6c0.6,18.6,1.4,37.3,1.5,55.9
		c0.3,39.5,0.9,79.1-2.3,118.5c-1,12.8-2.3,25.6-4,38.4c-1.6,12.3-3.8,24.6-7,36.6c-3.2,12-7.2,23.8-13.1,34.8
		c-8.7,16.1-21,27.9-38.7,33.6c-2.7,0.9-5.3,2.3-7.9,3.6c-2.3,1.1-3.6,2.9-4.3,5.5c-1.2,4.6-1.4,9.2-1.4,13.9
		C1049.8,723.5,1049.8,841.5,1049.8,959.5z M87,959.6c0,117.3,0,234.7,0,352c0,2.7,0.1,5.3,0,8c-0.1,3.2,0.8,6.1,1.9,9.1
		c1,2.9,3,4.7,6.1,5.6c5.4,1.6,10.7,2.5,16.4,2.5c80-0.1,160-0.1,240-0.1s160,0.2,240,0c80-0.2,160,0.6,240-0.5
		c48.9-0.7,97.8-0.1,146.7-0.1c2.7,0,5.4,0.2,8-0.2c3.3-0.5,6.5-1.2,9.7-2.2c2-0.6,3.3-2.1,4-4.1c1.6-4.4,2.5-8.9,2.5-13.7
		c-0.1-26,0-52,0-78c0-210,0-420,0-630c0-2.7,0.1-5.3-0.1-8c-0.3-5.3-1.9-9.9-6-13.6c-2.9-2.5-5.5-5.2-8.2-7.8
		c-22.9-21.9-38-48.4-46.9-78.6c-5.3-17.9-8.4-36.3-10.5-54.8c-1.8-15.2-2.9-30.5-3.9-45.8c-0.7-10.4-1.1-20.8-1.3-31.3
		c-0.5-20.7-0.9-41.3-1.1-62c-0.2-23.6-0.2-47.1-0.2-70.7c0-4-0.1-8-1.2-11.9c-0.8-2.8-2.2-4.9-4.7-6c-3.6-1.7-7.2-3.5-10.9-4.8
		c-24.6-8.4-49.2-16.6-73.8-24.9c-39.6-13.3-79.1-26.5-118.7-39.8c-4.5-1.5-9-2.1-13.7-2c-3.2,0.1-5.5,1.2-7.1,4
		c-2.4,4.3-4.3,8.7-5,13.7c-3.1,21.2-8.4,41.8-16.5,61.6c-6.3,15.3-14.1,29.7-24.5,42.6c-13.8,17.4-30.9,30.5-51.3,39.4
		c-13.7,6-28.1,9.8-42.9,11.8c-9.7,1.3-19.3,1.9-29.2,0.5c-19.8-2.7-37.8-9.4-54.4-20.4c-16.2-10.7-29.1-24.7-39.3-41.1
		c-16.6-26.7-25.3-56.1-28.5-87.2c-0.7-6.8-1.2-13.7-4.5-20c-1.6-3.1-3.9-4.6-7.4-4.8c-4.7-0.2-9.2,0.3-13.8,1.8
		c-28.9,9.4-57.9,18.6-86.8,28c-37.8,12.2-75.6,24.4-113.4,36.7c-2.7,0.9-5.2,2.4-7.8,3.7c-3.3,1.7-4.9,4.5-5.2,8
		c-0.3,3.5-0.5,7.1-0.4,10.6c0.3,11.1,0.9,22.2,1.3,33.3c0.5,13.5,1.1,27.1,1.2,40.6c0.3,34.2,1.1,68.4-0.7,102.6
		c-1,18.6-2,37.2-4.1,55.8c-1.7,15.7-4.2,31.2-8.1,46.5c-3.2,12.5-7.4,24.7-13.7,36c-6.1,11.1-13.8,20.7-25.1,27
		c-4.1,2.3-8.5,3.9-12.7,5.8c-2.8,1.3-5.7,2.5-8.5,3.9c-2.4,1.1-3.5,3-4.3,5.6c-1.4,4.8-1.3,9.7-1.3,14.5
		C87,724.1,87,841.8,87,959.6z M1508,1955.4c29.3,0,58.6,0,88,0c57.1,0,114.2,0,171.3,0c4.3,0,8.4-0.6,12.5-1.4
		c2.8-0.5,5.1-1.7,6.4-4.2c1.7-3.1,3.6-6.1,4.9-9.4c6.8-17.4,13.5-34.8,20.1-52.2c18.8-49.1,37.6-98.3,56.6-147.3
		c2-5.2,2.4-10.3,2.4-15.6c0-2.5-1.1-4.2-3.1-5.6c-3.9-2.6-8-4.7-12.6-5.8c-8.8-2.2-17.7-4.4-26.4-6.8
		c-20.4-5.7-39.9-13.6-58.3-24.2c-19.3-11.2-36.9-24.7-53.9-39c-17-14.3-33.6-29-51.1-42.8c-30.8-24.4-65.1-42.3-102.9-53.1
		c-14.8-4.2-29.8-6.8-45.2-7.6c-9.8-0.6-19.5-0.4-29.3,0.2c-6.4,0.4-12.8,1.1-19.2,2.1c-13.4,1.9-26.4,5.7-39.3,10
		c-26.2,8.8-51.3,20-74.5,35.1c-14,9.1-27.3,19-40.6,29.2c-15,11.5-29.9,23-45,34.4c-26.6,20.3-55.7,36.4-86,50.5
		c-8.9,4.1-17.7,8.3-26.6,12.3c-3.9,1.8-7.1,4.5-10.4,7.2c-1.6,1.3-2.9,3.1-2.5,5.2c0.8,4.3,0.6,8.9,2.4,13c1.2,2.8,2.3,5.8,3.4,8.7
		c16.2,41.1,32.3,82.2,48.5,123.3c9,22.9,18,45.9,27.1,68.8c1.2,3.1,2.8,6,4.5,8.9c1.6,2.8,4.2,4.4,7.5,5c4.2,0.8,8.3,1.3,12.5,1.3
		C1335.6,1955.4,1421.8,1955.4,1508,1955.4z M543.4,1955.4c86.2,0,172.4,0,258.6,0c4.2,0,8.4-0.4,12.6-1.2c3.6-0.7,6.3-2.4,7.9-5.4
		c1.8-3.3,3.5-6.7,4.9-10.2c19-48.1,37.9-96.3,56.8-144.4c7.1-18,14-36,21.2-53.9c1.7-4.2,2.1-8.6,2.3-13c0.1-2.6-0.8-4.7-2.7-6.5
		c-3.1-2.9-6.6-5.2-10.5-7c-15.7-7.3-31.4-14.7-46.9-22.3c-23.8-11.7-46.2-25.7-67.3-41.7c-19.3-14.6-38.5-29.4-57.7-44.1
		c-34.8-26.7-73.4-45.7-115.5-57.8c-12.2-3.5-24.6-6.1-37.2-7c-15.9-1.2-31.9-1.4-47.9,0.7c-12.6,1.6-25,4.1-37.1,7.8
		c-33,10.1-63.3,25.7-91,46.2c-13.1,9.6-25.4,20.2-37.7,30.8c-16,13.8-31.9,27.6-49,40.1c-23,16.7-47.8,30-75.1,38.1
		c-11.7,3.5-23.5,6.5-35.3,9.5c-4.4,1.1-8.3,3.1-12,5.5c-2.2,1.5-3.3,3.5-3.3,6.1c0.1,5.3,0.4,10.5,2.4,15.6
		c16.4,42.2,32.5,84.5,48.7,126.8c9.2,24,18.5,48.1,27.8,72.1c1.2,3.1,2.8,6,4.3,9c1.4,2.7,3.8,4.3,6.8,4.9
		c4.1,0.9,8.2,1.5,12.5,1.5C370.5,1955.4,456.9,1955.4,543.4,1955.4z M1026,1406.7c-292,0-583.9,0-875.9,0c-2.9,0-5.8-0.2-8.7,0.1
		c-3.5,0.4-7,1.2-10.4,2c-2.3,0.6-3.8,2.3-4.6,4.5c-1.3,3.6-2.2,7.2-2.2,11c0,9.1-0.1,18.2,0.1,27.3c0.1,3.1,0.9,6.1,1.5,9.1
		c0.8,3.6,3.2,5.5,6.7,6.7c5.2,1.7,10.5,1.6,15.8,1.6c585.3,0,1170.5,0,1755.8,0c2.7,0,5.4,0.2,8-0.2c3.1-0.4,6.1-1.1,9.1-2
		c2.5-0.7,4.2-2.3,5-4.9c1.3-4.2,2.7-8.4,2.6-13c-0.1-6.9-0.1-13.8,0-20.7c0.1-4.7-1-9.2-2.3-13.7c-1-3.6-3.2-5.4-6.8-6.5
		c-5.2-1.5-10.5-1.5-15.8-1.5C1611.2,1406.7,1318.6,1406.7,1026,1406.7z M1026,74.3c139.3,0,278.6,0,417.9,0c1.8,0,3.6-0.1,5.3,0
		c3.6,0.2,7-0.8,10.5-1.7c3.2-0.8,5.7-2.6,6.4-6.1c0.7-3,1.6-6,1.7-9.1c0.3-5.3,0.3-10.7,0-16c-0.2-3.1-1-6.1-1.7-9.1
		c-0.7-3.1-2.8-4.7-5.7-5.9c-4.7-1.8-9.5-2-14.4-2c-279.7,0-559.5,0-839.2,0c-1.3,0-2.7,0.1-4,0c-3.4-0.3-6.6,0.8-9.8,1.6
		c-3.8,1-6,3.4-7.2,7.1c-2.1,6.5-2,26.5,0.1,32.9c1.1,3.2,3,5.1,6.2,6.3c4.9,1.7,10,1.8,15.1,1.8C746.9,74.3,886.5,74.3,1026,74.3z
		 M1026.7,81.6c-139.3,0-278.6,0-417.9,0c-3.1,0-6.2-0.2-9.3,0.1c-10.4,1.1-14.2,3.6-15,15.5c-0.4,6,0,12-0.1,18
		c0,3.2,0.9,6.1,2.2,9c1,2.4,2.7,3.8,5.2,4.8c5.1,1.9,10.3,2.4,15.7,2.4c279,0,558.1,0,837.1,0c0.9,0,1.8-0.1,2.7,0
		c3.6,0.3,7-0.8,10.5-1.5c6.3-1.1,8.9-5.2,9.7-11c0.2-1.1,0.3-2.2,0.3-3.3c0-6.4,0.4-12.9-0.1-19.3c-0.8-11.1-4.2-12.7-13.8-14.5
		c-1.3-0.2-2.7-0.2-4-0.2c-2.4,0-4.9,0-7.3,0C1304,81.6,1165.3,81.6,1026.7,81.6z M1507.4,1961.8c-91.3,0-182.6,0-273.9-0.1
		c-5.7,0-11,1.1-16.1,3.4c-2.9,1.3-4.5,3.5-4.7,6.7c-0.3,4.3,0,8.4,1.6,12.4c3.7,9.3,7.2,18.6,11,27.9c0.9,2.2,2.4,4.3,3.5,6.4
		c1.5,2.7,3.9,4.2,6.9,4.7c4.4,0.8,8.7,1.5,13.2,1.5c172.2-0.1,344.3,0,516.5-0.1c3.5,0,7-0.9,10.6-1c6.3-0.1,9.5-4,12-9
		c0.7-1.4,1.3-2.8,1.8-4.3c3-7.7,5.7-15.4,8.9-23c2.4-5.6,2.3-11.2,2.2-17c-0.1-2.5-1.3-4.1-3.6-5.1c-5.3-2.4-10.8-3.7-16.7-3.7
		C1689.5,1961.8,1598.5,1961.8,1507.4,1961.8z M544.3,2024.7c86,0,171.9,0,257.9,0c3.5,0,7-0.8,10.6-0.8c7.1-0.1,10.6-4.7,13.2-10.4
		c0.6-1.4,1.2-2.9,1.7-4.3c2.6-6.8,5.1-13.8,8-20.5c2.4-5.5,2.7-11.1,2.7-16.9c0-3.7-1.8-5.6-5-7c-5.2-2.3-10.5-3-16.2-3
		c-155.9,0.1-311.9,0.1-467.8,0.1c-26.7,0-53.3,0.1-80-0.1c-5.3,0-10,1.5-14.7,3.5c-3.3,1.4-4.9,4-4.6,7.4c0.4,4.8,0.7,9.7,2.5,14.4
		c3.3,8.2,6.4,16.5,9.8,24.8c1,2.4,2.6,4.7,3.8,7c1.5,2.8,4,4.1,7,4.6c4.6,0.9,9.2,1.5,13.9,1.5
		C372.8,2024.7,458.5,2024.7,544.3,2024.7z M1475.7,1374.6c-0.4,0-0.9,0-1.3,0c-0.6,2.9-1.7,5.4-4.8,5.7c-2.8,0.3-5.8,0.2-8.6-0.1
		c-0.9-0.1-2.1-1.1-2.4-1.9c-1.2-3.2,0.8-6.4,4.1-6.8c1.5-0.2,3.1-0.2,4.6-0.1c3.7,0.3,5.7-1.9,7.2-4.8c0.9-1.7,0.5-3.7-1.1-4.7
		c-1.1-0.7-2.4-1.2-3.7-1.3c-3.5-0.2-7.1-0.2-10.6-0.1c-3.3,0.1-4.2,1.3-3.5,4.7c0.8,3.8,1,7.4,0,11.2c-0.2,0.9-0.3,1.7-0.4,2.6
		c0,1.3,1,2.7,2.4,2.7c4.4,0.1,8.9,0.1,13.3-0.2c1.4-0.1,2.9-1,4.1-2c0.7-0.6,1.1-1.9,1.3-2.9
		C1476.6,1376.2,1476,1375.4,1475.7,1374.6z M578.4,1377.6c-1.6-1.4-2.7-2.1-3.5-3.1c-2.6-3.3-5-6.7-7.6-10.1c-0.8-1-1.6-2.2-2.6-3
		c-2.2-1.8-5.2-0.5-5.3,2.3c-0.1,5.3,0,10.6,0.1,15.9c0,0.5,0.6,1,1.6,2.5c2-6,0-11.7,1.5-16.5c2-0.9,2.9,0.1,3.8,1.2
		c2.7,3.5,5.3,7.1,7.9,10.6c0.9,1.2,1.8,2.5,3,3.5c0.8,0.6,2.2,0.9,3,0.6c0.8-0.3,1.7-1.6,1.7-2.5c0-5.5-0.1-11-0.3-16.5
		c0-0.1-0.3-0.2-0.9-0.5C579,1366.8,581.5,1372.2,578.4,1377.6z M540.1,1360.5C540.1,1360.5,540.1,1360.5,540.1,1360.5
		c-0.4,0-0.9-0.1-1.3,0c-6.6,0.4-10.5,4.2-10.6,10.4c-0.1,6.3,3.5,10.4,9.9,11.1c1.8,0.2,3.6,0.2,5.3-0.1c5.7-0.9,9.5-5.5,9.4-11.1
		c-0.1-5.7-4.1-9.8-10-10.4C541.9,1360.4,541,1360.5,540.1,1360.5z M516.7,1373.6c1.1-0.9,2.5-2,3.7-3.3c2.4-2.5,2.1-6-0.8-8
		c-1.2-0.8-2.8-1.4-4.2-1.6c-2.9-0.2-5.7-0.2-8.6,0c-2.6,0.1-3.7,1.1-3.8,3.6c-0.2,4.9-0.1,9.7,0,14.6c0,0.8,0.1,1.8,1.7,1.3
		c0.2-1.4,0.3-3,0.7-4.4c0.6-2.4,2.8-3.6,5.1-2.7c1.2,0.5,2.3,1.4,3.1,2.3c1.7,1.8,3.1,3.7,4.8,5.5c0.5,0.5,1.4,0.6,2.5,1.1
		C519.8,1378.6,516.5,1377.2,516.7,1373.6z M1383.4,1507.1c1.2-1.1,2.6-2.1,3.8-3.4c2.5-2.7,2-6.5-1.2-8.5c-1.1-0.7-2.4-1.1-3.7-1.2
		c-2.4-0.2-4.9-0.2-7.3-0.1c-4.4,0.1-5.1,0.8-5.2,4.9c-0.1,4.4,0,8.8,0,13.2c0,0.8,0,1.8,1.6,1.6c0.1-0.8,0.3-1.6,0.4-2.5
		c0.2-0.9,0.2-1.8,0.5-2.6c0.6-1.8,2.3-2.9,4.1-2.3c1.4,0.4,2.8,1.3,3.8,2.3c1.6,1.5,2.8,3.4,4.3,5.1c0.7,0.7,1.4,1.8,3,0.9
		C1386.3,1512.1,1383.6,1510.4,1383.4,1507.1z M1437.9,1494.9c-0.2,0.1-0.6,0.2-0.6,0.3c-1.2,6.1-0.8,12.3-0.2,18.4
		c0,0.3,0.9,0.6,1.4,0.8c0.3-0.4,0.6-0.5,0.6-0.7c0.2-1.3,0.3-2.6,0.5-3.9c0.4-3,1.2-4.1,4-4.4c2.8-0.3,5.7-0.2,8.6-0.1
		c2.2,0.1,3.6,1.5,4,3.7c0.3,1.6-0.3,3.4,1.7,5.4c0.3-1.7,0.6-2.7,0.6-3.7c0-4.9-0.1-9.7-0.2-14.6c0-0.2-0.6-0.5-0.9-0.7
		c-2.3,8-2.3,8-11.3,7.7c-5.6-0.2-5.7-0.2-6.5-5.9C1439.3,1496.2,1439.3,1495.1,1437.9,1494.9z M1505.6,1382c-3.2-7-5.8-13-8.8-18.8
		c-1.9-3.7-5.7-3.5-7.6,0.3c-2.7,5.3-5.1,10.7-7.6,16.1c-0.2,0.5,0,1.2,0,2.4c1-0.8,1.9-1.1,2.2-1.8c1.5-3,4.1-3.7,7.2-3.5
		c0.9,0.1,1.8,0.1,2.6,0c4-0.4,7.4,0.4,9.4,4.4C1503.2,1381.4,1503.8,1381.4,1505.6,1382z M1642.3,1504.8c0-0.2,0-0.4,0-0.6
		c-1.7,0-3.4,0-5.1-0.2c-1.3-0.1-2.6-0.3-3.9-0.7c-1.6-0.5-2.6-2.9-2.4-5c0.2-1.4,1.4-2.5,3.3-2.6c2.6-0.2,5.3-0.1,8-0.2
		c0.8,0,1.8,0.4,2.1-0.9c-6.8-1.1-11.9-0.9-16.1,0.6c0.2,3.2,0.4,6.5,0.4,9.8c0,3.2-0.3,6.5-0.4,9.6c6.8,1.3,12.8,1.2,16.2-0.3
		c-0.2-0.1-0.4-0.3-0.6-0.3c-1.8-0.1-3.5-0.2-5.3-0.3c-1.5-0.1-3.1-0.1-4.6-0.3c-2.3-0.4-3.3-2-2.8-4.4c0.5-2.4,1.5-3.5,4-3.7
		C1637.5,1504.9,1639.9,1504.9,1642.3,1504.8z M1532.4,1368c-0.4-2.2-0.3-2.7-0.6-3c-4.2-5.1-12.6-6.2-18-2.7
		c-5.9,3.9-5,14-0.4,17.4c3.9,2.9,13.9,4,18.1-1.9c0.5-0.7,1-1.5-0.5-2.4c-0.7,0.6-1.4,1.5-2.3,2c-1.9,1-3.9,2.3-5.9,2.7
		c-5.4,1-10.3-3.1-10.6-8.4c-0.3-5.2,3.4-9.3,8.8-9.6c2.5-0.2,4.9,0.4,6.9,2C1529.1,1365,1530.1,1366.1,1532.4,1368z M668.3,1515.3
		c0-0.5,0-0.9,0.1-1.4c-1.3-0.1-2.6-0.2-3.9-0.3c-2.2-0.1-4.4-0.1-6.6-0.4c-2.6-0.4-3.5-2.3-2.7-5c0.6-2,1.9-3,3.8-3.1
		c2.4-0.2,4.8-0.2,7.3-0.3c-1.7-0.6-3.4-0.6-5.1-0.8c-1.3-0.1-2.6-0.3-3.9-0.7c-1.6-0.5-2.7-2.9-2.5-5c0.2-1.4,1.4-2.6,3.3-2.7
		c2.4-0.2,4.9-0.1,7.3-0.2c1-0.1,2.2,0.5,2.9-0.8c-6.2-1.2-11.7-1-16.2,0.4c0.2,3.2,0.3,6.5,0.6,9.8c0.3,3.3-1.2,6.5-0.2,10
		C657.8,1515.8,663,1515.3,668.3,1515.3z M587.3,1505.1c0-0.2,0.1-0.5,0.1-0.7c-2.6-0.3-5.3-0.4-7.8-0.9c-2.3-0.4-3.3-2.3-3.2-5
		c0.1-1.7,1.2-2.7,3.7-2.9c2.2-0.1,4.4,0,6.6-0.1c1,0,1.9-0.2,2.9-0.3c-5.3-1.2-10.6-1.9-16.1-0.4c0.2,3.7,0.3,7,0.5,10.3
		c0.1,3.2-0.9,6.5-0.2,9.7c7.2,1.3,13.1,1.1,16.2-0.7c-2-0.1-3.5-0.2-5-0.2c-1.8-0.1-3.5,0-5.3-0.3c-2.5-0.3-3.5-1.6-3.2-4.1
		c0.4-2.9,1.4-4,4.2-4.2C582.9,1504.9,585.1,1505.1,587.3,1505.1z M457.6,1495.3c0-0.5-0.1-1-0.1-1.5c-5.3,0.7-10.8-0.9-16.4,1.1
		c0.3,3.3,0.8,6.3,0.7,9.4c0,3.3-0.5,6.5-0.7,9.8c0.7,0.4,1.3,1,1.8,1c4.6,0.1,9.3,0.1,13.9,0.1c0.2,0,0.5-0.5,1-1.2
		c-1.5-0.1-2.7-0.3-4-0.4c-2.2-0.1-4.4,0-6.6-0.3c-3-0.4-4-2.5-3-5.3c0.7-1.9,2.1-2.8,4-3c2.4-0.2,4.8-0.2,7.2-0.3
		c-0.8-0.6-1.6-0.6-2.4-0.7c-0.9,0-1.8,0-2.7-0.1c-1.3-0.1-2.6-0.3-3.9-0.6c-1.8-0.5-2.8-2.7-2.6-4.8c0.1-1.5,1.3-2.6,3.1-2.9
		c1.5-0.2,3.1-0.2,4.6-0.2C453.7,1495.4,455.6,1495.4,457.6,1495.3z M1566.5,1495.6c-4.1-2-10.7-2.2-17-0.7c0.3,3.2,0.7,6.5,0.7,9.8
		c0,3.3-0.5,6.6-0.8,10.1c1.5,0.3,2.5,0.6,3.6,0.6c4,0,8,0,12-0.1c0.2,0,0.4-0.6,0.9-1.2c-1.5-0.1-2.7-0.2-4-0.3
		c-2.2-0.1-4.4-0.1-6.6-0.4c-1.8-0.2-2.7-1.4-2.7-3.2c0-3.4,1.3-4.7,4.8-5c2-0.2,4.1-0.2,6.1-0.3c-2.6-0.6-5.3-0.8-7.9-1.3
		c-2.3-0.4-3.3-2.3-3.1-5.1c0.1-1.7,1.3-2.7,3.8-2.8C1559.4,1495.5,1562.5,1495.6,1566.5,1495.6z M1574.6,1494.7
		c0.2,3.5,0.6,6.7,0.6,10c0,3.2-0.5,6.5-0.7,9.6c6.1,1.7,14,1.5,16.6-0.4c-3.6-0.1-6.9-0.2-10.2-0.4c-1.6-0.1-3.1-0.7-3.5-2.5
		c-0.4-1.8,0.1-3.6,1.6-4.8c0.8-0.6,2-1,3-1.1c2.2-0.2,4.5-0.2,6.7-0.4c-2.9-0.6-5.7-0.8-8.5-1.2c-1.9-0.3-3-2.3-3-4.6
		c0-1.8,1.2-3,3.5-3.2c2.2-0.2,4.4-0.1,6.6-0.2c1.2-0.1,2.6,0.6,4-1.5C1585.6,1494.2,1580.3,1493.2,1574.6,1494.7z M612.9,1504.8
		c0-0.2,0-0.3,0-0.5c-0.9-0.1-1.7-0.1-2.6-0.2c-1.8-0.1-3.5-0.1-5.3-0.3c-2.7-0.4-4.1-2.6-3.8-5.3c0.2-1.7,1.5-2.7,3.9-2.9
		c2-0.1,4,0,6-0.2c0.9-0.1,2.3,0.6,2.8-1.5c-4.3,0-8.5,0-12.6,0c-0.8,0-1.6,0.5-2.8,0.8c0.3,3.4,0.4,6.6,0.8,9.9
		c0.4,3.3-1.7,6.4-0.5,9.7c5.8,1.6,13.7,1.4,16.1-0.3c-0.2-0.1-0.4-0.3-0.6-0.3c-1.8-0.1-3.5-0.1-5.3-0.2c-1.5-0.1-3.1,0-4.6-0.3
		c-2.6-0.4-3.6-2.4-2.8-4.9c0.6-1.9,1.8-3.1,3.8-3.3C607.7,1504.9,610.3,1504.9,612.9,1504.8z M1558.6,1362.1
		c-5.8,3.5-8.4,10-13.9,13.5c-2.2-0.9-2.2-2.5-2.3-4.1c-0.1-1.8,0-3.6-0.1-5.3c-0.1-1.4,0.6-3-1.5-4.5c-1,6.3-0.7,12.2-0.2,18.1
		c0,0.5,0.7,1,1.3,1.6c4.1-1.7,5.2-6.7,9.6-8.4c0.9,0.9,2,1.7,2.7,2.7c1.2,1.6,2.2,3.3,3.4,4.9c0.5,0.7,1.2,1.4,2.4,0.3
		c-0.7-1.4-1.5-3-2.3-4.5c-0.9-1.5-1.9-3-2.7-4.6c-0.9-1.7-0.9-3.4,0.2-5C1556.3,1365.3,1557.4,1363.7,1558.6,1362.1z M481.7,1495.3
		c0-0.5,0-0.9,0-1.4c-4,0-7.9-0.1-11.9,0c-2.7,0.1-3.7,1.1-3.7,3.6c-0.1,5.1,0,10.2,0.1,15.3c0,0.5,0.6,1.1,0.9,1.6
		c0.5-0.3,1.1-0.4,1.2-0.7c0.3-1.1,0.4-2.1,0.6-3.2c0.6-3.9,1.1-4.3,5.2-4.5c2-0.1,4,0,6-0.1c0.7,0,1.8,0.2,1.5-1.7
		c-1.7,0-3.4,0-5.2,0c-1.3,0-2.7-0.1-4-0.3c-2.3-0.4-3.4-1.8-3.3-4.2c0.1-2.4,1.1-3.7,3.6-4C475.6,1495.5,478.7,1495.5,481.7,1495.3
		z M1423.9,1513.1c-2.1,0.3-3.3,0.6-4.6,0.6c-1.3,0.1-2.7,0-4-0.2c-4.7-1-7.7-5.1-7.4-9.6c0.3-4.7,3.8-8.1,8.7-8.5
		c2.7-0.2,5.3,0.2,7.5,1.9c1,0.7,1.7,2.2,3.7,1.3c-0.4-0.7-0.7-1.6-1.3-2.1c-4.2-3.6-12.2-4-16.7-0.9c-4.3,3-5.7,10.5-2.8,14.9
		c1.7,2.5,4,4.2,7,4.6C1417.2,1515.6,1420.5,1516.1,1423.9,1513.1z M622.7,1494.2c-0.1,1.2-0.3,1.7-0.1,2.1
		c2.4,5.2,4.8,10.5,7.2,15.7c0.4,0.8,0.9,1.6,1.4,2.2c1,1.2,3.1,1.3,4.2,0.3c0.6-0.6,1.1-1.4,1.5-2.2c2.6-5.4,5.2-10.7,7.8-16.2
		c0.2-0.5-0.1-1.2-0.2-2.6c-5.2,5.5-5.7,13-10.3,17.9c-3.1-0.4-3.4-2.9-4.3-4.8c-1.1-2.2-1.9-4.5-3.1-6.6
		C625.8,1498.1,625.4,1495.8,622.7,1494.2z M1621,1494.9c-5.6,4.4-6.2,11.8-10.8,16.6c-2.4-0.2-2.8-1.8-3.5-3.2c-2-4.2-4-8.4-6-12.6
		c-0.4-0.8-1.1-1.4-2.4-0.2c2.8,5.8,5.2,11.9,8.4,17.8c0.2,0.4,0.5,0.7,0.8,1.1c1,1.1,3.3,1.2,4.2,0.1c0.9-1,1.6-2.1,2.1-3.3
		c2.2-4.6,4.4-9.2,6.5-13.8C1620.6,1496.5,1620.8,1495.7,1621,1494.9z M493.5,1372.7c0.1-0.5,0.1-0.9,0.2-1.4
		c-1.2-0.1-2.5-0.3-3.7-0.4c-1.6-0.1-3.1,0-4.7-0.2c-2.8-0.4-4.2-1.8-4.2-4.2c0-2.5,1.3-3.9,4.2-4.1c2.2-0.2,4.4-0.1,6.7-0.2
		c0.7,0,1.9,0.2,1.5-1.6c-3.5,0-7-0.1-10.5,0c-2.9,0.1-4,1.1-4.1,4.1c-0.1,4.9,0,9.8,0.1,14.6c0,0.4,0.7,0.8,1.1,1.3
		c0.3-0.7,0.6-1.1,0.6-1.5c1-6.3,1-6.3,7.5-6.5C490,1372.7,491.8,1372.7,493.5,1372.7z M508.4,1495.2c-0.1-0.4-0.1-0.8-0.2-1.2
		c-5.7,0-11.4,0-17.1,0c-0.3,0-0.6,0.5-1,0.9c0.6,0.3,1.2,0.6,1.7,0.7c5.9,1.1,6,1.1,6.1,7.2c0.1,3.1,0,6.2,0.1,9.3
		c0,1.5,1.1,2.8,1.6,2.3c0.5-0.6,1-1.4,1.1-2.2c0.2-1.8,0.1-3.5,0.1-5.3c0-2.4,0-4.9,0.1-7.3c0.1-2.2,1-3.1,3.2-3.6
		C505.5,1495.6,507,1495.5,508.4,1495.2z M1466.3,1494c0,0.4-0.1,0.9-0.1,1.3c1.1,0.1,2.1,0.2,3.2,0.4c3.8,0.7,4.4,1.3,4.5,5.2
		c0.1,3.5,0,7.1,0.1,10.6c0,0.8,0.4,1.7,0.6,2.5c0,0.1,0.4,0.3,0.6,0.3c0.4-0.1,1-0.3,1.1-0.5c0.3-1,0.5-2.1,0.5-3.2
		c0.1-3.5,0-7.1,0.1-10.6c0.1-2.7,0.9-3.6,3.4-4.1c1.4-0.3,2.8-0.5,4.6-0.8c-0.8-0.7-1.1-1.1-1.5-1.1
		C1477.8,1494,1472,1494,1466.3,1494z M608.4,1361.7c-0.1-0.3-0.1-0.7-0.2-1c-5.7,0-11.4,0-17.1,0c-0.3,0-0.6,0.5-1,0.9
		c0.6,0.2,1.2,0.5,1.8,0.6c0.6,0.1,1.3,0.1,2,0.2c2.9,0.7,3.7,1.5,3.9,4.5c0.2,3.5,0.1,7.1,0.2,10.6c0,1,0.3,1.9,0.5,2.9
		c1.1-0.7,1.5-1.4,1.5-2.2c0.1-2.9,0.1-5.7,0.1-8.6c0.1-4.9,0.7-7.6,6.7-7.5C607.3,1362.3,607.9,1361.9,608.4,1361.7z M551.6,1495.7
		c-0.6,0-1.1-0.1-1.7-0.1c-0.3,5.8-0.6,11.7,0.2,17.5c0.2,1.4,1.5,2.2,3,2.2c3.8,0.1,7.5,0.1,11.3,0c0.5,0,1-0.5,2.6-1.2
		c-2.4-0.3-3.6-0.6-4.8-0.6c-2-0.1-4,0-6-0.3c-2.8-0.3-3.8-1.4-4.1-4.3c-0.2-2-0.2-4-0.2-6C551.7,1500.5,551.6,1498.1,551.6,1495.7z
		 M418.4,1495.6c-1.1,5.5-1,10.9-0.7,16.4c0.1,2.1,1.3,3.2,3.4,3.3c3.7,0.1,7.5,0.1,11.2,0c0.5,0,1-0.5,2.6-1.3
		c-2.9-0.3-4.5-0.5-6.2-0.6c-8.8-0.3-9.1-0.6-9.2-9.6C419.5,1501.1,420,1498.2,418.4,1495.6z M1526.8,1495.6
		c-1.3,5.6-1.1,11.2-0.8,16.9c0.1,1.7,1.2,2.7,3.2,2.8c3.8,0.1,7.5,0.1,11.3,0c0.5,0,1-0.5,2.7-1.4c-3.2-0.2-5.1-0.4-7-0.5
		c-7.5-0.3-8.1-0.9-8.2-8.6C1527.8,1501.8,1528.2,1498.7,1526.8,1495.6z M1504.9,1494.9c-0.2-0.3-0.3-0.6-0.5-1
		c-1.2,0.5-2.5,0.7-3.5,1.5c-3.9,3-3.4,6.9,1.2,8.6c1.6,0.6,3.4,0.7,5.2,1c3.8,0.5,7.4,1.4,10,4.5c0.1,0.1,0.7-0.3,1.3-0.5
		c0-2.3-1.2-3.7-3.3-4.2c-2.4-0.6-4.8-1-7.2-1.4c-1.3-0.2-2.7-0.2-3.9-0.7c-3.5-1.4-3.7-4.2-1.4-6.2
		C1503.5,1495.9,1504.2,1495.4,1504.9,1494.9z M1147,1686c2-2.6,3.6-4.5,3.6-7.5c-2.8-0.8-5.2-0.9-8,0.1
		C1143.3,1681.5,1144.6,1683.5,1147,1686z M189,1678.4c-3.1-0.6-5.7-0.8-8.7,0.2c0.9,2.8,2.2,4.9,4.2,6.9
		C187.3,1683.8,188.4,1681.5,189,1678.4z M1871.9,1678c-3.6,0-6.2-0.6-9,0.6c0.8,2.9,1.8,5.1,4.3,6.9
		C1869.5,1683.6,1870.4,1681.2,1871.9,1678z M904.4,1685.6c2.4-2.1,3.4-4.5,4.6-7.2c-3.2-0.7-5.8-0.9-8.7,0.2
		C900.8,1681.4,902,1683.4,904.4,1685.6z M1397.2,1495.6c-1.1,5.9-1.4,11.8-0.5,17.7c0,0.2,0.7,0.2,1.6,0.5
		C1398.1,1507.6,1398.8,1501.6,1397.2,1495.6z M1057.8,1353.8c-1.8-2.9-2.2-5.5-5-7c-1.5,2.2-3.1,4-3.4,6.7
		C1051.8,1354.9,1054.1,1354.6,1057.8,1353.8z M94.3,1353.7c-0.2-2.7-1.5-4.9-3.7-6.8c-2.1,2-3.4,4.1-3.8,6.7
		C90.5,1354.6,90.5,1354.6,94.3,1353.7z M1002.3,1353.8c-0.4-2.9-1.9-4.9-3.9-7.1c-2,2.2-3.6,4.1-3.5,7.2
		C997.4,1354.6,999.7,1354.8,1002.3,1353.8z M1957.7,1353.5c3.5,1.1,3.5,1.1,7.6,0c-0.8-2.4-1.3-4.8-4.1-6
		C1959,1349.2,1957.9,1351.1,1957.7,1353.5z M1499.4,1510.7c1.1,3.1,3.7,4.1,6.5,4.6c2.6,0.5,4.3,0.1,6.1-1.2
		C1505.6,1513.8,1505.6,1513.8,1499.4,1510.7z M1517.8,1498.4c-2.3-3.2-4.1-4.3-6.8-3.8C1512.8,1495.6,1514.1,1497.3,1517.8,1498.4z
		 M534.6,1494.2c3.5,3,3.5,3,6.5,3.2C539.5,1495.2,537.6,1494,534.6,1494.2z M1766.8,1371.4c-0.1,0-0.1,0-0.2,0c-3.2,0-6.4,0-9.6,0
		c0,0,0,0,0,0C1760.3,1371.4,1763.6,1371.4,1766.8,1371.4z M1181,1371.4c-0.1,0-0.1,0-0.2,0c3.5,0,6.9,0,10.4,0c0,0,0,0,0,0
		C1187.9,1371.4,1184.4,1371.4,1181,1371.4z M150,1371.3C150,1371.3,150,1371.4,150,1371.3c3.5,0.1,6.9,0.1,10.4,0.1c0,0,0,0,0-0.1
		C156.9,1371.3,153.4,1371.3,150,1371.3z M1157.7,1371.3c0.1,0,0.1,0,0.2,0c-3.5,0-6.9,0-10.4,0c0,0,0,0,0,0
		C1150.8,1371.3,1154.3,1371.3,1157.7,1371.3z M1114.2,1371.3c0.1,0,0.1,0,0.2,0.1c3.4,0,6.8,0,10.3,0c0,0,0,0,0-0.1
		C1121.2,1371.3,1117.7,1371.3,1114.2,1371.3z M256.7,1371.4c0.2,0,0.4,0,0.6,0c-3.3,0-6.5,0-9.8,0c0,0,0,0,0,0
		C250.6,1371.4,253.6,1371.4,256.7,1371.4z M290,1371.4C290,1371.4,290,1371.4,290,1371.4c-3.5,0-7,0-10.4,0c0,0,0,0,0,0
		C283,1371.4,286.5,1371.4,290,1371.4z M312.1,1504.6c0,0,0,0.1,0,0.1c3.3,0,6.6,0,9.9,0c0,0,0-0.1,0-0.1
		C318.7,1504.6,315.4,1504.6,312.1,1504.6z M355.4,1371.4C355.4,1371.4,355.4,1371.4,355.4,1371.4c-3.5-0.1-6.9-0.1-10.4-0.1
		c0,0,0,0,0,0.1C348.4,1371.4,351.9,1371.4,355.4,1371.4z M376.8,1371.3C376.8,1371.4,376.8,1371.4,376.8,1371.3
		c3.5,0.1,6.9,0.1,10.4,0.1c0,0,0,0,0-0.1C383.7,1371.3,380.2,1371.3,376.8,1371.3z M344.4,1504.6c1-0.1,1-0.1,0.9,0
		c0.2,0,0.4,0.1,0.6,0.1c3.1,0,6.2,0,9.3,0c0,0,0-0.1,0-0.1C352,1504.6,348.8,1504.6,344.4,1504.6z M213,1504.6
		C213,1504.6,212.9,1504.6,213,1504.6c3.4,0.1,6.9,0.1,10.4,0.1c0,0,0-0.1,0-0.1C219.9,1504.6,216.4,1504.6,213,1504.6z
		 M744.3,1504.6c0.1,0,0.1,0,0.2-0.1c-3.3,0-6.7,0-10,0c0,0,0,0,0,0.1C737.8,1504.6,741,1504.6,744.3,1504.6z M670,1371.3
		c-0.2,0-0.4,0-0.6,0c3.2,0,6.5,0,9.7,0c0,0,0,0,0,0C676.1,1371.3,673.1,1371.3,670,1371.3z M278.5,1504.6c0.1,0,0.1,0,0.2,0
		c3.2,0,6.4,0,9.6,0c0,0,0,0,0,0C285,1504.6,281.8,1504.6,278.5,1504.6z M744.2,1371.4c0.1,0,0.1,0,0.2-0.1c-3.3,0-6.7,0-10,0
		c0,0,0,0,0,0.1C737.7,1371.4,741,1371.4,744.2,1371.4z M766.2,1371.4C766.2,1371.4,766.2,1371.4,766.2,1371.4c3.5,0,7,0,10.5,0
		c0,0,0,0,0,0C773.2,1371.4,769.7,1371.4,766.2,1371.4z M961.6,1371.3c0,0,0.1,0,0.1,0.1c3.2,0,6.4,0,9.6,0c0,0,0,0,0-0.1
		C968.1,1371.3,964.8,1371.3,961.6,1371.3z M843.3,1504.7C843.3,1504.7,843.3,1504.6,843.3,1504.7c-3.5-0.1-7-0.1-10.4-0.1
		c0,0,0,0,0,0.1C836.3,1504.7,839.8,1504.7,843.3,1504.7z M864.1,1371.3c0,0,0,0.1,0,0.1c3.3,0,6.6,0,10,0c0,0,0-0.1,0-0.1
		C870.7,1371.3,867.4,1371.3,864.1,1371.3z M876.7,1504.7C876.7,1504.7,876.7,1504.6,876.7,1504.7c-3.5-0.1-6.9-0.1-10.4-0.1
		c0,0,0,0,0,0.1C869.8,1504.7,873.2,1504.7,876.7,1504.7z M1733.6,1371.4C1733.7,1371.4,1733.7,1371.4,1733.6,1371.4
		c-3.4-0.1-6.9-0.1-10.3-0.1c0,0,0,0.1,0,0.1C1726.7,1371.4,1730.2,1371.4,1733.6,1371.4z M1690.3,1371.3
		C1690.3,1371.3,1690.3,1371.4,1690.3,1371.3c3.4,0.1,6.9,0.1,10.3,0.1c0,0,0-0.1,0-0.1C1697.2,1371.3,1693.8,1371.3,1690.3,1371.3z
		 M1666.9,1371.3c0.1,0,0.1,0,0.2,0c-3.5,0-6.9,0-10.4,0c0,0,0,0,0,0C1660.1,1371.3,1663.5,1371.3,1666.9,1371.3z M1633.2,1371.4
		c0,0,0-0.1,0-0.1c-3.3,0-6.6,0-10,0c0,0,0,0.1,0,0.1C1626.6,1371.4,1629.9,1371.4,1633.2,1371.4z M1091.3,1371.4
		C1091.3,1371.4,1091.3,1371.3,1091.3,1371.4c-3.5-0.1-7-0.1-10.5-0.1c0,0,0,0,0,0.1C1084.3,1371.4,1087.8,1371.4,1091.3,1371.4z
		 M777.7,1504.7c-0.5,0.1-0.5,0-0.4,0c-0.2,0-0.4-0.1-0.6-0.1c-3.1,0-6.2,0-9.3,0c0,0,0,0.1,0,0.1
		C770.6,1504.7,773.9,1504.7,777.7,1504.7z M1381,1371.3c0.5,0,0.4,0,0.4,0c0.2,0,0.4,0.1,0.6,0.1c3.1,0,6.2,0,9.3,0
		c0,0,0-0.1,0-0.1C1388,1371.3,1384.8,1371.3,1381,1371.3z M1324.2,1371.4c-0.1,0-0.1,0-0.2,0c-3.2,0-6.4,0-9.6,0c0,0,0,0,0,0
		C1317.7,1371.4,1321,1371.4,1324.2,1371.4z M1357.6,1371.4c-0.1,0-0.1,0-0.2,0c-3.2,0-6.4,0-9.6,0c0,0,0,0,0,0
		C1351,1371.4,1354.3,1371.4,1357.6,1371.4z M1291,1371.4C1291.1,1371.4,1291.1,1371.4,1291,1371.4c-3.4-0.1-6.9-0.1-10.4-0.1
		c0,0,0,0.1,0,0.1C1284.1,1371.4,1287.6,1371.4,1291,1371.4z M1257.1,1371.4c0,0-0.1,0-0.1-0.1c-3.2,0-6.4,0-9.6,0c0,0,0,0,0,0.1
		C1250.6,1371.4,1253.9,1371.4,1257.1,1371.4z M1215.3,1371.3c-0.2,0-0.4,0-0.6,0c3.3,0,6.5,0,9.8,0c0,0,0,0,0,0
		C1221.4,1371.3,1218.4,1371.3,1215.3,1371.3z M127.4,1371.4C127.4,1371.4,127.4,1371.4,127.4,1371.4c-3.1-0.1-6.1-0.1-9.2-0.1
		c0,0,0,0,0,0.1C121.2,1371.4,124.3,1371.4,127.4,1371.4z M184.7,1624.2c0,0,0,0.1-0.1,0.1c0,2.8,0,5.6,0,8.3c0,0,0,0,0.1,0
		C184.7,1629.9,184.7,1627.1,184.7,1624.2z M224.6,1371.4C224.6,1371.4,224.6,1371.4,224.6,1371.4c-3-0.1-6-0.1-8.9-0.1
		c0,0,0,0,0,0.1C218.7,1371.4,221.7,1371.4,224.6,1371.4z M314,1371.3c-0.2,0-0.4,0-0.6,0c2.8,0,5.7,0,8.5,0c0,0,0,0,0,0
		C319.2,1371.3,316.6,1371.3,314,1371.3z M184.7,1662c0,0.2,0,0.4,0,0.6c0-2.8,0-5.6,0-8.5c0,0,0,0,0,0
		C184.7,1656.8,184.7,1659.4,184.7,1662z M799.8,1371.3c0,0,0.1,0,0.1,0c2.8,0,5.6,0,8.5,0c0,0,0,0,0,0
		C805.5,1371.3,802.6,1371.3,799.8,1371.3z M702.5,1371.3c0,0,0.1,0,0.1,0c2.8,0,5.7,0,8.5,0c0,0,0,0,0,0
		C708.2,1371.3,705.3,1371.3,702.5,1371.3z M189.9,1504.7c-4.3,0.2-4.3,0.2-5.1,3.7C185.8,1505.2,185.8,1505.2,189.9,1504.7z
		 M410,1371.4C410,1371.4,410,1371.4,410,1371.4c3.1,0,6.1,0,9.2,0c0,0,0,0,0,0C416.2,1371.4,413.1,1371.4,410,1371.4z
		 M800.7,1504.7C800.7,1504.7,800.7,1504.7,800.7,1504.7c3,0,6.1,0,9.1,0c0,0,0,0,0,0C806.8,1504.7,803.7,1504.7,800.7,1504.7z
		 M1174.3,1504.6c-0.1,0-0.1,0-0.2,0.1c2.9,0,5.8,0,8.7,0c0,0,0,0,0-0.1C1180,1504.6,1177.2,1504.6,1174.3,1504.6z M1204.6,1504.6
		c0.8,0,0.7,0,0.7,0c0.2,0,0.4,0.1,0.6,0.1c2.7,0,5.4,0,8.1,0c0,0,0-0.1,0-0.1C1211.1,1504.6,1208.3,1504.6,1204.6,1504.6z
		 M1276.6,1504.6C1276.6,1504.6,1276.6,1504.6,1276.6,1504.6c-3,0-6,0-9,0c0,0,0,0,0,0C1270.6,1504.6,1273.6,1504.6,1276.6,1504.6z
		 M1715.4,1504.7C1715.4,1504.7,1715.4,1504.6,1715.4,1504.7c-3.1-0.1-6.1-0.1-9.2-0.1c0,0,0,0,0,0.1
		C1709.2,1504.7,1712.3,1504.7,1715.4,1504.7z M1737.1,1504.6c0,0,0.1,0,0.1,0c2.8,0,5.6,0,8.5,0c0,0,0,0,0,0
		C1742.9,1504.6,1740,1504.6,1737.1,1504.6z M1777.6,1504.7c-0.4,0-0.4,0-0.3,0c-0.2,0-0.4-0.1-0.6-0.1c-2.7,0-5.3,0-8,0
		c0,0,0,0.1,0,0.1C1771.5,1504.7,1774.3,1504.7,1777.6,1504.7z M1840.6,1504.6C1840.6,1504.6,1840.6,1504.6,1840.6,1504.6
		c-3.1,0-6.1,0-9.2,0c0,0,0,0,0,0C1834.5,1504.6,1837.5,1504.6,1840.6,1504.6z M938.1,1371.4c-0.8,0-0.8,0-0.7,0
		c-0.2,0-0.4-0.1-0.6-0.1c-2.7,0-5.4,0-8.1,0c0,0,0,0.1,0,0.1C931.5,1371.4,934.3,1371.4,938.1,1371.4z M184.7,1540.6
		C184.7,1540.6,184.7,1540.6,184.7,1540.6c0-3.1,0-6.1,0-9.2c0,0,0,0,0,0C184.7,1534.5,184.7,1537.5,184.7,1540.6z M896.8,1371.4
		C896.8,1371.4,896.8,1371.4,896.8,1371.4c3,0,6,0,9.1,0c0,0,0,0,0,0C902.8,1371.4,899.8,1371.4,896.8,1371.4z M1799.6,1504.6
		C1799.6,1504.7,1799.6,1504.7,1799.6,1504.6c3,0,6,0,9.1,0c0,0,0,0,0,0C1805.7,1504.6,1802.7,1504.6,1799.6,1504.6z M184.7,1562.4
		c0-0.1,0-0.2-0.1-0.3c0,3.1,0,6.1,0,9.2c0,0,0,0,0.1,0C184.7,1568.3,184.7,1565.3,184.7,1562.4z M184.7,1600.7c0,0.2,0,0.4,0,0.6
		c0-2.8,0-5.6,0-8.5c0,0,0,0,0,0C184.7,1595.5,184.7,1598.1,184.7,1600.7z M192.6,1371.4C192.6,1371.4,192.5,1371.4,192.6,1371.4
		c-2.6,0-5.2,0-7.8,0c0,0,0,0,0,0C187.3,1371.4,189.9,1371.4,192.6,1371.4z M1923.3,1371.3
		C1923.3,1371.4,1923.3,1371.4,1923.3,1371.3c2.6,0,5.1,0,7.7,0c0,0,0,0,0,0C1928.4,1371.3,1925.8,1371.3,1923.3,1371.3z
		 M1798,1371.4C1798,1371.4,1798,1371.3,1798,1371.4c-2.6-0.1-5.3-0.1-7.9-0.1c0,0,0,0,0,0.1
		C1792.7,1371.4,1795.3,1371.4,1798,1371.4z M1823.2,1371.4C1823.2,1371.4,1823.2,1371.4,1823.2,1371.4c2.6,0,5.3,0,7.9,0
		c0,0,0,0,0,0C1828.5,1371.4,1825.9,1371.4,1823.2,1371.4z M246.1,1504.6c0.1,0,0.1,0,0.2,0.1c2.6,0,5.1,0,7.7,0c0,0,0,0,0-0.1
		C251.4,1504.6,248.8,1504.6,246.1,1504.6z M1238,1504.6C1238,1504.6,1238,1504.6,1238,1504.6c2.6,0,5.2,0,7.7,0c0,0,0,0,0,0
		C1243.2,1504.6,1240.6,1504.6,1238,1504.6z M1300.7,1504.6C1300.7,1504.6,1300.7,1504.6,1300.7,1504.6c2.6,0,5.2,0,7.8,0
		c0,0,0,0,0,0C1305.9,1504.6,1303.3,1504.6,1300.7,1504.6z M839.1,1371.4C839.1,1371.4,839.1,1371.3,839.1,1371.4
		c-2.4-0.1-4.8-0.1-7.3-0.1c0,0,0,0.1,0,0.1C834.2,1371.4,836.6,1371.4,839.1,1371.4z M1864.4,1371.4
		C1864.4,1371.4,1864.5,1371.3,1864.4,1371.4c-2.6-0.1-5.2-0.1-7.9-0.1c0,0,0,0,0,0.1C1859.2,1371.4,1861.8,1371.4,1864.4,1371.4z
		 M1898,1371.4C1898,1371.4,1898,1371.4,1898,1371.4c-2.6,0-5.2,0-7.8,0c0,0,0,0,0,0C1892.8,1371.4,1895.4,1371.4,1898,1371.4z
		 M645.7,1371.3c0,0.1,0,0.1,0.1,0.2c0.6,0,1.3,0,2.5,0C647,1371.3,646.4,1371.3,645.7,1371.3z M96.1,1371.3c-0.6,0-1,0-1.4,0
		c-0.2,0-0.5,0.1-0.7,0.1c0.2,0,0.4,0,0.6,0C95.1,1371.4,95.5,1371.4,96.1,1371.3z M1958.4,1371.4c-0.3,0-0.7-0.1-1.1-0.1
		c-0.2,0-0.4,0-0.6,0c0.2,0,0.4,0.1,0.6,0.1C1957.7,1371.4,1958.1,1371.4,1958.4,1371.4z M1058.8,1371.3c-0.6,0-1,0-1.4,0
		c-0.2,0-0.5,0.1-0.7,0.1c0.2,0,0.4,0,0.6,0C1057.7,1371.4,1058.2,1371.4,1058.8,1371.3z M1149.6,1504.6
		C1149.6,1504.6,1149.6,1504.7,1149.6,1504.6c0.7,0.1,1.4,0.1,2.2,0.1c0,0,0,0,0-0.1C1151,1504.6,1150.3,1504.6,1149.6,1504.6z
		 M1413.9,1371.2c0.4,0.1,0.7,0.2,1.1,0.2c0.2,0,0.5-0.1,0.7-0.1c-0.2,0-0.4,0-0.6,0C1414.7,1371.3,1414.3,1371.3,1413.9,1371.2z
		 M1599,1371.3C1599,1371.4,1599,1371.4,1599,1371.3c0.7,0,1.4,0,2.1,0c0,0,0,0,0,0C1600.4,1371.3,1599.7,1371.3,1599,1371.3z
		 M899.3,1504.6c-0.1,0-0.3,0.1-0.5,0.1c0.2,0,0.4,0,0.6,0c0.2,0,0.4-0.1,0.6-0.1C899.7,1504.6,899.5,1504.6,899.3,1504.6z
		 M1861.7,1504.6C1862.4,1504.6,1862,1504.6,1861.7,1504.6C1862,1504.6,1862.4,1504.7,1861.7,1504.6z M712,1504.7
		c-0.2,0-0.4,0-0.6,0C711.6,1504.7,711.8,1504.7,712,1504.7z M1329.6,1504.5c0.4,0.1,0.8,0.1,1.2,0.2
		C1330.4,1504.7,1330,1504.6,1329.6,1504.5z M1682.9,1504.5c0.4,0.1,0.8,0.1,1.2,0.2C1683.7,1504.7,1683.3,1504.6,1682.9,1504.5z
		 M378.4,1504.7C377.7,1504.6,378,1504.7,378.4,1504.7C378,1504.7,377.7,1504.6,378.4,1504.7z M441.2,1371.3l-0.2,0.1l0.6,0
		L441.2,1371.3z M1422,1506.3l0.2-0.3l-0.4,0L1422,1506.3z"/>
	<path class="st3" d="M1049.8,959.5c0-118,0-236,0-354c0-4.7,0.2-9.3,1.4-13.9c0.7-2.6,2-4.4,4.3-5.5c2.6-1.2,5.1-2.7,7.9-3.6
		c17.7-5.7,30-17.5,38.7-33.6c5.9-11,9.9-22.8,13.1-34.8c3.2-12,5.3-24.2,7-36.6c1.7-12.8,2.9-25.6,4-38.4
		c3.2-39.5,2.6-79,2.3-118.5c-0.1-18.7-0.9-37.3-1.5-55.9c-0.3-10.2-0.9-20.4-1.2-30.6c-0.1-3.1,0.1-6.2,0.3-9.3c0.3-4,2-7.3,5.9-9
		c3.4-1.5,6.8-3.2,10.4-4.4c29.1-9.5,58.3-18.8,87.4-28.2c36.8-11.8,73.5-23.7,110.3-35.6c3.9-1.3,7.7-1.8,11.8-1.9
		c2.8-0.1,5.2,0.6,7.2,2.7c1.5,1.6,3.3,3,4.6,4.8c2.9,4.2,7,6.7,11.5,8.8c8,3.7,16.5,5.2,25,6.5c24.7,3.5,49.5,4.1,74.4,4
		c21.3-0.1,42.7,0,64-0.2c12.7-0.2,25.3-0.6,37.9-1.4c13.3-0.9,26.5-2.4,39.7-3.9c12.4-1.4,23.7-5.5,33.5-13.5
		c1.7-1.4,3.6-2.6,5.3-4c5.1-4.2,10.8-4.8,17-3.2c1.7,0.4,3.4,1.1,5.1,1.6c52.8,17.7,105.7,35.3,158.5,53c11.8,3.9,23.6,7.9,35.3,12
		c3.5,1.2,6.9,3.1,10.2,4.7c2.3,1.1,3.8,3,4.2,5.6c0.4,2.4,1,4.8,1,7.2c-0.1,5.8-0.5,11.5-0.9,17.3c0,0.7-0.2,1.3-0.2,2
		c-0.6,9.8-1.1,19.5-1.7,29.3c-0.6,9.7-1.4,19.5-2.1,29.2c-0.1,1.3-0.2,2.7-0.3,4c-0.4,7.3-0.9,14.6-1.2,21.9
		c-1.5,32.4-2.5,64.8-1.4,97.3c0.7,20.9,2.7,41.6,7.7,62c3.8,15.6,9.4,30.5,17.9,44.3c11.6,18.7,27.7,32.8,46.5,44
		c3.4,2,6.6,4.4,9.9,6.7c1.9,1.3,3,3.2,3.3,5.6c0.3,3.1,0.8,6.1,1.1,9.2c0.1,1.3,0,2.7,0,4c0,235.5,0,471.1,0,706.6
		c0,5.1-0.2,10.2-2.2,15c-1,2.5-2.4,4.3-5,4.9c-3.2,0.8-6.5,1.5-9.8,2c-2.4,0.3-4.9,0.1-7.3,0.1c-51.6,0-103.1-0.6-154.7,0.1
		c-79.1,1.1-158.2,0.3-237.3,0.5c-79.1,0.2-158.2,0-237.3,0c-79.1,0-158.2,0-237.3,0.1c-5.6,0-11-0.8-16.4-2.5c-3.3-1-5.4-3-6.2-6.3
		c-0.7-3-1.3-6.1-1.6-9.1c-0.3-2.4-0.1-4.9-0.1-7.3C1049.8,1194.2,1049.8,1076.9,1049.8,959.5z"/>
	<path class="st3" d="M87,959.6c0-117.8,0-235.5,0-353.3c0-4.9-0.1-9.7,1.3-14.5c0.8-2.5,1.9-4.5,4.3-5.6c2.8-1.3,5.6-2.6,8.5-3.9
		c4.2-1.9,8.6-3.5,12.7-5.8c11.2-6.2,19-15.9,25.1-27c6.2-11.4,10.4-23.5,13.7-36c4-15.3,6.4-30.8,8.1-46.5
		c2.1-18.5,3.1-37.1,4.1-55.8c1.7-34.2,1-68.4,0.7-102.6c-0.1-13.5-0.7-27.1-1.2-40.6c-0.4-11.1-1-22.2-1.3-33.3
		c-0.1-3.5,0.1-7.1,0.4-10.6c0.3-3.5,1.9-6.4,5.2-8c2.6-1.3,5.1-2.8,7.8-3.7c37.8-12.3,75.6-24.5,113.4-36.7
		c28.9-9.3,57.9-18.6,86.8-28c4.5-1.5,9.1-2,13.8-1.8c3.4,0.2,5.7,1.7,7.4,4.8c3.3,6.3,3.8,13.1,4.5,20
		c3.2,31.1,11.8,60.5,28.5,87.2c10.2,16.4,23.1,30.4,39.3,41.1c16.5,11,34.6,17.6,54.4,20.4c9.9,1.4,19.5,0.8,29.2-0.5
		c14.8-2,29.1-5.8,42.9-11.8c20.4-8.8,37.4-22,51.3-39.4c10.3-13,18.2-27.3,24.5-42.6c8.1-19.8,13.5-40.4,16.5-61.6
		c0.7-4.9,2.5-9.4,5-13.7c1.6-2.8,3.9-4,7.1-4c4.7-0.1,9.2,0.5,13.7,2c39.5,13.3,79.1,26.5,118.7,39.8c24.6,8.3,49.2,16.5,73.8,24.9
		c3.8,1.3,7.3,3.1,10.9,4.8c2.6,1.2,4,3.2,4.7,6c1.1,3.9,1.2,7.9,1.2,11.9c0.1,23.6,0,47.1,0.2,70.7c0.2,20.7,0.6,41.3,1.1,62
		c0.2,10.4,0.6,20.9,1.3,31.3c1.1,15.3,2.2,30.6,3.9,45.8c2.1,18.5,5.2,36.9,10.5,54.8c8.9,30.2,24,56.8,46.9,78.6
		c2.7,2.6,5.3,5.4,8.2,7.8c4.2,3.6,5.8,8.3,6,13.6c0.1,2.7,0.1,5.3,0.1,8c0,210,0,420,0,630c0,26-0.1,52,0,78
		c0,4.8-0.9,9.2-2.5,13.7c-0.7,2.1-2,3.6-4,4.1c-3.2,0.9-6.4,1.7-9.7,2.2c-2.6,0.4-5.3,0.2-8,0.2c-48.9,0-97.8-0.6-146.7,0.1
		c-80,1.1-160,0.3-240,0.5c-80,0.2-160,0-240,0s-160,0-240,0.1c-5.6,0-11-0.8-16.4-2.5c-3.1-0.9-5-2.7-6.1-5.6c-1-2.9-2-5.9-1.9-9.1
		c0.1-2.7,0-5.3,0-8C87,1194.3,87,1076.9,87,959.6z"/>
	<path class="st3" d="M1508,1955.4c-86.2,0-172.4,0-258.6,0c-4.3,0-8.4-0.5-12.5-1.3c-3.3-0.6-5.9-2.2-7.5-5
		c-1.7-2.9-3.2-5.8-4.5-8.9c-9.1-22.9-18.1-45.8-27.1-68.8c-16.2-41.1-32.3-82.2-48.5-123.3c-1.1-2.9-2.2-5.8-3.4-8.7
		c-1.8-4.2-1.6-8.7-2.4-13c-0.4-2.1,0.9-3.8,2.5-5.2c3.2-2.7,6.4-5.4,10.4-7.2c8.9-4,17.7-8.2,26.6-12.3
		c30.3-14.1,59.4-30.2,86-50.5c15-11.4,30-23,45-34.4c13.2-10.1,26.6-20.1,40.6-29.2c23.2-15.1,48.3-26.3,74.5-35.1
		c12.8-4.3,25.8-8.1,39.3-10c6.4-0.9,12.8-1.7,19.2-2.1c9.8-0.6,19.5-0.7,29.3-0.2c15.4,0.9,30.4,3.4,45.2,7.6
		c37.8,10.8,72.2,28.7,102.9,53.1c17.4,13.8,34.1,28.5,51.1,42.8c17,14.3,34.6,27.8,53.9,39c18.4,10.6,37.9,18.5,58.3,24.2
		c8.8,2.4,17.6,4.6,26.4,6.8c4.6,1.1,8.7,3.2,12.6,5.8c2,1.3,3.1,3.1,3.1,5.6c0,5.3-0.4,10.5-2.4,15.6
		c-19,49.1-37.7,98.2-56.6,147.3c-6.7,17.4-13.3,34.8-20.1,52.2c-1.3,3.3-3.2,6.3-4.9,9.4c-1.4,2.5-3.7,3.7-6.4,4.2
		c-4.1,0.7-8.3,1.4-12.5,1.4c-57.1-0.1-114.2,0-171.3,0C1566.7,1955.4,1537.4,1955.4,1508,1955.4z"/>
	<path class="st3" d="M543.4,1955.4c-86.4,0-172.9,0-259.3,0c-4.3,0-8.4-0.6-12.5-1.5c-3-0.6-5.4-2.1-6.8-4.9
		c-1.5-2.9-3.1-5.9-4.3-9c-9.3-24-18.6-48-27.8-72.1c-16.2-42.3-32.3-84.6-48.7-126.8c-2-5.2-2.3-10.3-2.4-15.6
		c0-2.7,1.1-4.7,3.3-6.1c3.7-2.4,7.6-4.4,12-5.5c11.8-3,23.7-6,35.3-9.5c27.3-8.2,52.1-21.4,75.1-38.1c17.1-12.4,33-26.3,49-40.1
		c12.3-10.6,24.6-21.1,37.7-30.8c27.8-20.5,58-36.1,91-46.2c12.1-3.7,24.5-6.2,37.1-7.8c16-2.1,32-1.9,47.9-0.7
		c12.6,1,25,3.6,37.2,7c42.1,12,80.7,31,115.5,57.8c19.2,14.8,38.4,29.5,57.7,44.1c21.1,16,43.5,30.1,67.3,41.7
		c15.6,7.6,31.2,15,46.9,22.3c3.9,1.8,7.3,4.1,10.5,7c1.9,1.8,2.8,3.9,2.7,6.5c-0.2,4.5-0.6,8.8-2.3,13
		c-7.2,17.9-14.2,35.9-21.2,53.9c-18.9,48.1-37.8,96.3-56.8,144.4c-1.4,3.5-3.1,6.9-4.9,10.2c-1.7,3.1-4.3,4.7-7.9,5.4
		c-4.2,0.8-8.3,1.2-12.6,1.2C715.8,1955.4,629.6,1955.4,543.4,1955.4z"/>
	<path class="st3" d="M1475.7,1374.6c0.3,0.7,0.9,1.5,0.8,2.2c-0.2,1-0.6,2.3-1.3,2.9c-1.2,0.9-2.7,1.9-4.1,2
		c-4.4,0.3-8.8,0.2-13.3,0.2c-1.4,0-2.4-1.4-2.4-2.7c0-0.9,0.1-1.8,0.4-2.6c0.9-3.7,0.8-7.4,0-11.2c-0.8-3.5,0.1-4.6,3.5-4.7
		c3.5-0.1,7.1-0.1,10.6,0.1c1.2,0.1,2.6,0.6,3.7,1.3c1.6,1,2,3,1.1,4.7c-1.5,2.9-3.5,5.1-7.2,4.8c-1.5-0.1-3.1-0.1-4.6,0.1
		c-3.3,0.3-5.3,3.6-4.1,6.8c0.3,0.8,1.5,1.8,2.4,1.9c2.8,0.2,5.8,0.3,8.6,0.1c3.1-0.3,4.2-2.8,4.8-5.7
		C1474.8,1374.6,1475.3,1374.6,1475.7,1374.6z M1464.9,1362c0,0.1,0,0.1,0,0.2c-1.1,0-2.2-0.1-3.3,0c-2,0.2-3.1,1.1-3.2,2.6
		c-0.2,2.3,0.9,4.7,2.6,4.8c2.6,0.2,5.3,0.2,7.9,0c1.7-0.1,3.2-2.1,3.2-3.7c0-1.6-1.4-3.3-3.2-3.7
		C1467.6,1362.1,1466.2,1362.1,1464.9,1362z"/>
	<path class="st3" d="M578.4,1377.6c3.1-5.4,0.6-10.8,2.5-15.5c0.5,0.3,0.9,0.4,0.9,0.5c0.1,5.5,0.3,11,0.3,16.5
		c0,0.9-0.9,2.2-1.7,2.5c-0.8,0.3-2.2,0-3-0.6c-1.2-0.9-2.1-2.2-3-3.5c-2.7-3.5-5.3-7.1-7.9-10.6c-0.8-1.1-1.8-2-3.8-1.2
		c-1.5,4.9,0.5,10.5-1.5,16.5c-1-1.5-1.6-2-1.6-2.5c-0.1-5.3-0.2-10.6-0.1-15.9c0.1-2.8,3.1-4,5.3-2.3c1,0.8,1.8,1.9,2.6,3
		c2.5,3.3,5,6.8,7.6,10.1C575.7,1375.5,576.8,1376.2,578.4,1377.6z"/>
	<path class="st3" d="M540.1,1360.5c0.9,0,1.8-0.1,2.7,0c5.9,0.5,9.9,4.7,10,10.4c0.1,5.6-3.7,10.2-9.4,11.1
		c-1.7,0.3-3.6,0.2-5.3,0.1c-6.4-0.7-10-4.8-9.9-11.1c0.1-6.2,4-10,10.6-10.4C539.2,1360.4,539.6,1360.4,540.1,1360.5
		C540.1,1360.5,540.1,1360.5,540.1,1360.5z M549.9,1371.3c0-5.3-3.7-9-9.3-9.1c-5.7-0.1-10.3,4-10.1,9.2c0.1,4.9,4.4,8.8,9.9,8.8
		C545.8,1380.3,549.9,1376.5,549.9,1371.3z"/>
	<path class="st3" d="M516.7,1373.6c-0.2,3.6,3.1,5.1,4,8.4c-1.1-0.5-2-0.6-2.5-1.1c-1.7-1.8-3.1-3.7-4.8-5.5
		c-0.9-0.9-2-1.8-3.1-2.3c-2.3-1-4.5,0.3-5.1,2.7c-0.4,1.5-0.5,3-0.7,4.4c-1.5,0.5-1.7-0.6-1.7-1.3c-0.1-4.9-0.1-9.7,0-14.6
		c0.1-2.5,1.2-3.5,3.8-3.6c2.9-0.1,5.8-0.2,8.6,0c1.5,0.1,3,0.7,4.2,1.6c2.9,2,3.2,5.5,0.8,8
		C519.2,1371.6,517.8,1372.6,516.7,1373.6z M510.9,1371.2C510.9,1371.1,510.9,1371.1,510.9,1371.2c1.1-0.1,2.2,0,3.3-0.1
		c0.4,0,0.9-0.1,1.3-0.2c2.1-0.6,3.6-2.3,3.6-4.2c0-1.9-1.4-3.9-3.5-4.1c-2.6-0.3-5.2-0.2-7.8,0c-0.7,0-1.5,0.9-1.9,1.6
		c-1.8,3.4,0,6.7,3.8,7C510,1371.2,510.4,1371.2,510.9,1371.2z"/>
	<path class="st3" d="M1383.4,1507.1c0.2,3.3,3,5,4.1,7.5c-1.6,0.9-2.4-0.2-3-0.9c-1.5-1.6-2.7-3.5-4.3-5.1c-1-1-2.4-1.9-3.8-2.3
		c-1.9-0.6-3.6,0.5-4.1,2.3c-0.3,0.8-0.3,1.7-0.5,2.6c-0.2,0.8-0.3,1.7-0.4,2.5c-1.6,0.2-1.6-0.8-1.6-1.6c-0.1-4.4-0.2-8.8,0-13.2
		c0.1-4.1,0.9-4.8,5.2-4.9c2.4-0.1,4.9-0.1,7.3,0.1c1.3,0.1,2.6,0.6,3.7,1.2c3.2,1.9,3.7,5.8,1.2,8.5
		C1386,1504.9,1384.6,1506,1383.4,1507.1z M1379.7,1504.5c0.1,0,1.7-0.1,3.1-0.5c1.8-0.5,2.9-2.3,2.9-4c0-1.8-1.2-3.7-3-3.9
		c-2.8-0.3-5.7-0.2-8.5-0.1c-0.5,0-1.1,0.7-1.5,1.2c-1.6,2.4-0.9,7.4,3.5,7.3C1376.9,1504.5,1377.6,1504.5,1379.7,1504.5z"/>
	<path class="st3" d="M1437.9,1494.9c1.5,0.2,1.4,1.4,1.6,2.4c0.8,5.7,0.9,5.8,6.5,5.9c9,0.3,9,0.3,11.3-7.7
		c0.3,0.2,0.9,0.5,0.9,0.7c0.1,4.9,0.2,9.7,0.2,14.6c0,1-0.3,2-0.6,3.7c-1.9-1.9-1.3-3.8-1.7-5.4c-0.5-2.3-1.8-3.6-4-3.7
		c-2.9-0.2-5.8-0.2-8.6,0.1c-2.8,0.3-3.6,1.4-4,4.4c-0.2,1.3-0.3,2.6-0.5,3.9c0,0.2-0.3,0.3-0.6,0.7c-0.4-0.3-1.3-0.5-1.4-0.8
		c-0.6-6.1-1-12.3,0.2-18.4C1437.3,1495.1,1437.6,1495,1437.9,1494.9z"/>
	<path class="st3" d="M1505.6,1382c-1.8-0.5-2.4-0.6-2.6-0.8c-1.9-4-5.4-4.8-9.4-4.4c-0.9,0.1-1.8,0.1-2.6,0
		c-3.1-0.2-5.7,0.5-7.2,3.5c-0.3,0.6-1.2,1-2.2,1.8c0-1.3-0.2-2,0-2.4c2.5-5.4,4.9-10.8,7.6-16.1c1.9-3.8,5.7-3.9,7.6-0.3
		C1499.8,1369,1502.4,1375,1505.6,1382z M1498,1374c-0.2-4.4-1.3-8.1-5.1-10.9c-2.8,2.3-3.6,5.3-4.7,8.2c-0.7,2,0.3,3.5,2.5,3.7
		C1492.9,1375.2,1495.2,1375.5,1498,1374z"/>
	<path class="st3" d="M1642.3,1504.8c-2.4,0.1-4.8,0.1-7.2,0.4c-2.4,0.3-3.5,1.4-4,3.7c-0.5,2.4,0.5,4,2.8,4.4
		c1.5,0.3,3.1,0.3,4.6,0.3c1.8,0.1,3.5,0.2,5.3,0.3c0.2,0,0.4,0.2,0.6,0.3c-3.3,1.5-9.4,1.6-16.2,0.3c0.1-3.1,0.4-6.4,0.4-9.6
		c0-3.3-0.3-6.6-0.4-9.8c4.2-1.5,9.3-1.7,16.1-0.6c-0.3,1.3-1.3,0.9-2.1,0.9c-2.6,0.1-5.3,0-8,0.2c-1.9,0.1-3.2,1.2-3.3,2.6
		c-0.2,2.1,0.8,4.5,2.4,5c1.2,0.4,2.6,0.6,3.9,0.7c1.7,0.2,3.4,0.1,5.1,0.2C1642.3,1504.4,1642.3,1504.6,1642.3,1504.8z"/>
	<path class="st3" d="M1532.4,1368c-2.2-2-3.3-3-4.5-3.9c-2-1.5-4.3-2.1-6.9-2c-5.5,0.3-9.2,4.4-8.8,9.6c0.4,5.3,5.3,9.4,10.6,8.4
		c2.1-0.4,4-1.7,5.9-2.7c0.9-0.5,1.6-1.4,2.3-2c1.5,0.9,1,1.7,0.5,2.4c-4.2,5.9-14.2,4.8-18.1,1.9c-4.6-3.4-5.5-13.5,0.4-17.4
		c5.3-3.5,13.8-2.4,18,2.7C1532,1365.3,1532,1365.9,1532.4,1368z"/>
	<path class="st3" d="M668.3,1515.3c-5.2,0-10.5,0.5-15.9-0.4c-0.9-3.5,0.5-6.8,0.2-10c-0.3-3.3-0.4-6.6-0.6-9.8
		c4.5-1.5,10-1.6,16.2-0.4c-0.7,1.3-1.9,0.8-2.9,0.8c-2.4,0.1-4.9,0-7.3,0.2c-1.9,0.1-3.1,1.3-3.3,2.7c-0.2,2.1,0.8,4.4,2.5,5
		c1.2,0.4,2.6,0.6,3.9,0.7c1.7,0.2,3.4,0.1,5.1,0.8c-2.4,0.1-4.8,0.2-7.3,0.3c-2,0.2-3.2,1.2-3.8,3.1c-0.8,2.7,0.1,4.6,2.7,5
		c2.2,0.3,4.4,0.3,6.6,0.4c1.3,0.1,2.6,0.2,3.9,0.3C668.3,1514.4,668.3,1514.8,668.3,1515.3z"/>
	<path class="st3" d="M587.3,1505.1c-2.2,0-4.4-0.1-6.6,0c-2.8,0.2-3.8,1.4-4.2,4.2c-0.3,2.4,0.6,3.7,3.2,4.1
		c1.7,0.2,3.5,0.2,5.3,0.3c1.5,0.1,3.1,0.1,5,0.2c-3,1.8-9,2-16.2,0.7c-0.6-3.2,0.4-6.4,0.2-9.7c-0.1-3.3-0.3-6.6-0.5-10.3
		c5.4-1.4,10.7-0.7,16.1,0.4c-1,0.1-1.9,0.3-2.9,0.3c-2.2,0.1-4.4,0-6.6,0.1c-2.5,0.1-3.7,1.1-3.7,2.9c-0.1,2.8,0.9,4.6,3.2,5
		c2.6,0.5,5.2,0.6,7.8,0.9C587.4,1504.6,587.4,1504.9,587.3,1505.1z"/>
	<path class="st3" d="M457.6,1495.3c-1.9,0.1-3.9,0.1-5.8,0.2c-1.5,0.1-3.1,0-4.6,0.2c-1.9,0.2-3,1.3-3.1,2.9
		c-0.2,2.2,0.9,4.3,2.6,4.8c1.3,0.4,2.6,0.5,3.9,0.6c0.9,0.1,1.8,0,2.7,0.1c0.8,0,1.6,0.1,2.4,0.7c-2.4,0.1-4.8,0.2-7.2,0.3
		c-1.9,0.1-3.3,1.1-4,3c-1.1,2.8,0,4.9,3,5.3c2.2,0.3,4.4,0.2,6.6,0.3c1.2,0.1,2.5,0.2,4,0.4c-0.6,0.7-0.8,1.2-1,1.2
		c-4.6,0-9.3,0-13.9-0.1c-0.6,0-1.1-0.6-1.8-1c0.3-3.3,0.7-6.5,0.7-9.8c0-3-0.5-6.1-0.7-9.4c5.6-2,11-0.4,16.4-1.1
		C457.5,1494.3,457.6,1494.8,457.6,1495.3z"/>
	<path class="st3" d="M1566.5,1495.6c-4,0-7.1-0.1-10.2,0c-2.5,0.1-3.7,1.1-3.8,2.8c-0.2,2.8,0.8,4.7,3.1,5.1
		c2.6,0.5,5.2,0.6,7.9,1.3c-2,0.1-4.1,0.1-6.1,0.3c-3.5,0.3-4.8,1.7-4.8,5c0,1.7,0.9,3,2.7,3.2c2.2,0.3,4.4,0.2,6.6,0.4
		c1.3,0.1,2.6,0.2,4,0.3c-0.4,0.6-0.6,1.2-0.9,1.2c-4,0.1-8,0.2-12,0.1c-1,0-2.1-0.3-3.6-0.6c0.3-3.5,0.8-6.8,0.8-10.1
		c0-3.3-0.5-6.6-0.7-9.8C1555.8,1493.4,1562.4,1493.5,1566.5,1495.6z"/>
	<path class="st3" d="M1574.6,1494.7c5.6-1.5,10.9-0.5,16.8-0.8c-1.4,2.1-2.8,1.4-4,1.5c-2.2,0.2-4.4,0-6.6,0.2
		c-2.3,0.2-3.5,1.4-3.5,3.2c0,2.3,1,4.3,3,4.6c2.8,0.5,5.7,0.6,8.5,1.2c-2.2,0.1-4.5,0.1-6.7,0.4c-1.1,0.1-2.2,0.4-3,1.1
		c-1.4,1.2-2,2.9-1.6,4.8c0.4,1.8,1.9,2.4,3.5,2.5c3.3,0.2,6.6,0.3,10.2,0.4c-2.6,1.9-10.5,2.1-16.6,0.4c0.2-3.1,0.7-6.4,0.7-9.6
		C1575.2,1501.4,1574.9,1498.2,1574.6,1494.7z"/>
	<path class="st3" d="M612.9,1504.8c-2.6,0.1-5.1,0.2-7.7,0.4c-1.9,0.2-3.2,1.4-3.8,3.3c-0.8,2.5,0.3,4.5,2.8,4.9
		c1.5,0.3,3.1,0.2,4.6,0.3c1.8,0.1,3.5,0.1,5.3,0.2c0.2,0,0.4,0.2,0.6,0.3c-2.3,1.7-10.3,1.8-16.1,0.3c-1.1-3.2,0.9-6.4,0.5-9.7
		c-0.4-3.2-0.6-6.5-0.8-9.9c1.1-0.4,2-0.8,2.8-0.8c4.2-0.1,8.3,0,12.6,0c-0.5,2.1-1.9,1.4-2.8,1.5c-2,0.2-4,0-6,0.2
		c-2.4,0.2-3.7,1.2-3.9,2.9c-0.3,2.7,1.1,4.9,3.8,5.3c1.7,0.3,3.5,0.2,5.3,0.3c0.9,0.1,1.7,0.1,2.6,0.2
		C612.9,1504.5,612.9,1504.6,612.9,1504.8z"/>
	<path class="st3" d="M1558.6,1362.1c-1.2,1.6-2.3,3.2-3.5,4.8c-1.2,1.6-1.2,3.3-0.2,5c0.9,1.5,1.9,3,2.7,4.6c0.8,1.5,1.6,3,2.3,4.5
		c-1.3,1.1-1.9,0.4-2.4-0.3c-1.2-1.6-2.1-3.4-3.4-4.9c-0.8-1-1.8-1.8-2.7-2.7c-4.4,1.7-5.5,6.7-9.6,8.4c-0.5-0.6-1.2-1.1-1.3-1.6
		c-0.4-5.9-0.7-11.8,0.2-18.1c2.1,1.4,1.4,3.1,1.5,4.5c0.1,1.8,0,3.5,0.1,5.3c0.1,1.5,0.1,3.2,2.3,4.1
		C1550.2,1372.1,1552.8,1365.6,1558.6,1362.1z"/>
	<path class="st3" d="M481.7,1495.3c-3.1,0.2-6.1,0.2-9.2,0.5c-2.5,0.2-3.5,1.6-3.6,4c-0.1,2.4,1,3.8,3.3,4.2c1.3,0.2,2.6,0.3,4,0.3
		c1.7,0,3.5,0,5.2,0c0.4,1.9-0.8,1.7-1.5,1.7c-2,0.1-4,0-6,0.1c-4.1,0.2-4.6,0.6-5.2,4.5c-0.2,1.1-0.3,2.2-0.6,3.2
		c-0.1,0.3-0.7,0.4-1.2,0.7c-0.3-0.5-0.9-1-0.9-1.6c-0.1-5.1-0.2-10.2-0.1-15.3c0-2.6,1.1-3.6,3.7-3.6c4-0.1,7.9,0,11.9,0
		C481.7,1494.4,481.7,1494.9,481.7,1495.3z"/>
	<path class="st3" d="M1423.9,1513.1c-3.4,2.9-6.7,2.5-9.9,2.1c-3-0.4-5.3-2.1-7-4.6c-2.9-4.4-1.5-11.9,2.8-14.9
		c4.5-3.1,12.6-2.7,16.7,0.9c0.6,0.5,0.8,1.3,1.3,2.1c-2,0.9-2.7-0.7-3.7-1.3c-2.3-1.6-4.8-2.1-7.5-1.9c-4.9,0.4-8.3,3.8-8.7,8.5
		c-0.3,4.5,2.8,8.6,7.4,9.6c1.3,0.3,2.6,0.3,4,0.2C1420.5,1513.7,1421.8,1513.4,1423.9,1513.1z"/>
	<path class="st3" d="M622.7,1494.2c2.7,1.6,3.1,3.9,4,5.8c1.1,2.2,2,4.4,3.1,6.6c0.9,1.9,1.2,4.4,4.3,4.8
		c4.6-4.9,5.1-12.3,10.3-17.9c0.1,1.4,0.4,2.1,0.2,2.6c-2.5,5.4-5.1,10.8-7.8,16.2c-0.4,0.8-0.9,1.5-1.5,2.2c-1,1.1-3.2,0.9-4.2-0.3
		c-0.5-0.7-1-1.4-1.4-2.2c-2.4-5.2-4.8-10.4-7.2-15.7C622.4,1495.9,622.6,1495.4,622.7,1494.2z"/>
	<path class="st3" d="M1621,1494.9c-0.2,0.8-0.4,1.7-0.8,2.4c-2.1,4.6-4.3,9.2-6.5,13.8c-0.6,1.2-1.3,2.3-2.1,3.3
		c-1,1.1-3.2,1-4.2-0.1c-0.3-0.3-0.6-0.7-0.8-1.1c-3.1-5.8-5.6-12-8.4-17.8c1.3-1.3,2.1-0.6,2.4,0.2c2.1,4.2,4,8.4,6,12.6
		c0.7,1.4,1.1,3,3.5,3.2C1614.8,1506.7,1615.4,1499.2,1621,1494.9z"/>
	<path class="st3" d="M493.5,1372.7c-1.8,0-3.5,0-5.3,0c-6.5,0.1-6.5,0.1-7.5,6.5c-0.1,0.4-0.3,0.8-0.6,1.5
		c-0.5-0.5-1.1-0.9-1.1-1.3c-0.1-4.9-0.3-9.8-0.1-14.6c0.1-3,1.2-4,4.1-4.1c3.5-0.1,7.1,0,10.5,0c0.4,1.8-0.8,1.5-1.5,1.6
		c-2.2,0.1-4.4,0-6.7,0.2c-2.9,0.2-4.2,1.7-4.2,4.1c0,2.4,1.4,3.9,4.2,4.2c1.5,0.2,3.1,0.1,4.7,0.2c1.2,0.1,2.5,0.2,3.7,0.4
		C493.7,1371.8,493.6,1372.3,493.5,1372.7z"/>
	<path class="st3" d="M508.4,1495.2c-1.5,0.2-3,0.4-4.4,0.7c-2.2,0.5-3,1.4-3.2,3.6c-0.2,2.4-0.1,4.9-0.1,7.3c0,1.8,0.1,3.5-0.1,5.3
		c-0.1,0.8-0.6,1.6-1.1,2.2c-0.5,0.5-1.5-0.8-1.6-2.3c-0.1-3.1,0-6.2-0.1-9.3c-0.1-6.1-0.1-6.1-6.1-7.2c-0.6-0.1-1.1-0.4-1.7-0.7
		c0.5-0.4,0.7-0.9,1-0.9c5.7,0,11.4,0,17.1,0C508.3,1494.4,508.4,1494.8,508.4,1495.2z"/>
	<path class="st3" d="M1466.3,1494c5.7,0,11.4,0,17.1,0c0.3,0,0.6,0.4,1.5,1.1c-1.8,0.3-3.3,0.4-4.6,0.8c-2.5,0.6-3.3,1.5-3.4,4.1
		c-0.1,3.5,0,7.1-0.1,10.6c0,1.1-0.2,2.2-0.5,3.2c-0.1,0.2-0.7,0.4-1.1,0.5c-0.2,0-0.5-0.1-0.6-0.3c-0.2-0.8-0.6-1.7-0.6-2.5
		c-0.1-3.5,0-7.1-0.1-10.6c-0.1-3.9-0.7-4.5-4.5-5.2c-1-0.2-2.1-0.3-3.2-0.4C1466.3,1494.9,1466.3,1494.4,1466.3,1494z"/>
	<path class="st3" d="M608.4,1361.7c-0.6,0.2-1.2,0.5-1.7,0.5c-6-0.2-6.6,2.6-6.7,7.5c-0.1,2.9,0,5.7-0.1,8.6c0,0.7-0.4,1.5-1.5,2.2
		c-0.2-1-0.4-1.9-0.5-2.9c-0.1-3.5,0-7.1-0.2-10.6c-0.1-3-1-3.8-3.9-4.5c-0.6-0.2-1.3-0.1-2-0.2c-0.6-0.1-1.1-0.4-1.8-0.6
		c0.4-0.4,0.7-0.9,1-0.9c5.7,0,11.4,0,17.1,0C608.3,1361,608.4,1361.4,608.4,1361.7z"/>
	<path class="st3" d="M551.6,1495.7c0.1,2.4,0.1,4.8,0.2,7.2c0.1,2,0,4,0.2,6c0.3,2.9,1.4,3.9,4.1,4.3c2,0.2,4,0.2,6,0.3
		c1.2,0.1,2.4,0.3,4.8,0.6c-1.6,0.8-2.1,1.2-2.6,1.2c-3.8,0-7.5,0-11.3,0c-1.4,0-2.8-0.7-3-2.2c-0.7-5.8-0.5-11.7-0.2-17.5
		C550.5,1495.6,551,1495.6,551.6,1495.7z"/>
	<path class="st3" d="M418.4,1495.6c1.6,2.7,1.1,5.5,1.2,8.3c0.1,8.9,0.4,9.3,9.2,9.6c1.7,0.1,3.3,0.3,6.2,0.6
		c-1.6,0.8-2.1,1.3-2.6,1.3c-3.7,0-7.5,0.1-11.2,0c-2.2-0.1-3.3-1.2-3.4-3.3C417.4,1506.5,417.3,1501.1,418.4,1495.6z"/>
	<path class="st3" d="M1526.8,1495.6c1.4,3,1,6.1,1.1,9.2c0.2,7.7,0.7,8.3,8.2,8.6c1.9,0.1,3.8,0.3,7,0.5c-1.7,0.9-2.2,1.4-2.7,1.4
		c-3.8,0-7.5,0.1-11.3,0c-1.9-0.1-3.1-1-3.2-2.8C1525.6,1506.8,1525.4,1501.2,1526.8,1495.6z"/>
	<path class="st3" d="M540.9,1514c-1.7-7.7-2-8-9.9-9.1c-1.5-0.2-3.1-0.3-4.6-0.8c-2-0.6-3.6-1.9-4.1-4c-0.5-2.3,0.9-3.8,2.6-4.9
		c0.7-0.5,1.5-0.7,2.3-1c0.9,1.4-0.3,1.7-0.7,2.3c-1.9,2.9-1.2,5.1,1.9,6.1c1,0.3,2.2,0.4,3.3,0.6c2.2,0.4,4.4,0.7,6.5,1.2
		c3.6,0.9,4.6,2.7,3.8,6.4c-0.2,1.1-0.8,2.1-1.2,3.1L540.9,1514z"/>
	<path class="st3" d="M1504.9,1494.9c-0.7,0.5-1.4,1-2,1.6c-2.3,2-2.1,4.8,1.4,6.2c1.2,0.5,2.6,0.5,3.9,0.7c2.4,0.4,4.8,0.8,7.2,1.4
		c2.1,0.5,3.3,2,3.3,4.2c-0.6,0.2-1.2,0.6-1.3,0.5c-2.6-3.1-6.2-4.1-10-4.5c-1.7-0.2-3.6-0.3-5.2-1c-4.6-1.8-5.1-5.6-1.2-8.6
		c1-0.7,2.3-1,3.5-1.5C1504.6,1494.2,1504.8,1494.5,1504.9,1494.9z"/>
	<path class="st3" d="M1147,1686c-2.4-2.4-3.7-4.5-4.3-7.4c2.8-1,5.2-0.9,8-0.1C1150.6,1681.5,1149.1,1683.4,1147,1686z"/>
	<path class="st3" d="M189,1678.4c-0.6,3.1-1.7,5.4-4.5,7.1c-2-2-3.3-4.1-4.2-6.9C183.3,1677.5,186,1677.8,189,1678.4z"/>
	<path class="st3" d="M1871.9,1678c-1.5,3.2-2.4,5.6-4.7,7.5c-2.4-1.7-3.5-4-4.3-6.9C1865.6,1677.4,1868.2,1678,1871.9,1678z"/>
	<path class="st3" d="M904.4,1685.6c-2.3-2.2-3.5-4.3-4.1-7c2.9-1.1,5.6-0.9,8.7-0.2C907.7,1681.2,906.8,1683.6,904.4,1685.6z"/>
	<path class="st3" d="M1397.2,1495.6c1.6,6,0.9,12,1.1,18.2c-0.9-0.3-1.6-0.3-1.6-0.5C1395.8,1507.4,1396.1,1501.6,1397.2,1495.6z"
		/>
	<path class="st3" d="M1057.8,1353.8c-3.7,0.8-6,1.1-8.5-0.2c0.3-2.7,1.9-4.5,3.4-6.7C1055.6,1348.3,1056,1350.9,1057.8,1353.8z"/>
	<path class="st3" d="M94.3,1353.7c-3.8,1-3.8,1-7.5-0.1c0.3-2.7,1.6-4.8,3.8-6.7C92.8,1348.8,94,1350.9,94.3,1353.7z"/>
	<path class="st3" d="M1002.3,1353.8c-2.6,1-4.9,0.9-7.5,0.1c-0.1-3,1.6-4.9,3.5-7.2C1000.4,1348.9,1001.9,1350.8,1002.3,1353.8z"/>
	<path class="st3" d="M1957.7,1353.5c0.2-2.5,1.3-4.4,3.5-6c2.8,1.3,3.3,3.6,4.1,6C1961.2,1354.7,1961.2,1354.6,1957.7,1353.5z"/>
	<path class="st3" d="M540.8,1514c-3.4,0.7-6.7,2-10.3,1.4c-3.1-0.5-5.9-1.4-7.9-4.8c1,0,1.8-0.2,2.1,0c3.1,3,6.8,3.6,10.9,3.2
		C537.4,1513.7,539.1,1513.9,540.8,1514C540.9,1514,540.8,1514,540.8,1514z"/>
	<path class="st3" d="M1499.4,1510.7c6.2,3,6.2,3,12.6,3.4c-1.8,1.3-3.5,1.7-6.1,1.2C1503.1,1514.8,1500.5,1513.8,1499.4,1510.7z"/>
	<path class="st3" d="M1517.8,1498.4c-3.7-1-5-2.7-6.8-3.8C1513.7,1494.1,1515.6,1495.1,1517.8,1498.4z"/>
	<path class="st3" d="M534.6,1494.2c3-0.1,4.8,1,6.5,3.2C538.2,1497.1,538.2,1497.1,534.6,1494.2z"/>
	<path class="st3" d="M1766.8,1371.4c-3.3,0-6.5,0-9.8,0c0,0,0,0,0,0c3.2,0,6.4,0,9.6,0C1766.7,1371.4,1766.8,1371.4,1766.8,1371.4z
		"/>
	<path class="st3" d="M1181,1371.4c3.4,0,6.8,0,10.2,0c0,0,0,0,0,0c-3.5,0-6.9,0-10.4,0C1180.9,1371.4,1181,1371.4,1181,1371.4z"/>
	<ellipse class="st3" cx="155.1" cy="1371.4" rx="7.3" ry="0.1"/>
	<path class="st3" d="M1157.7,1371.3c-3.4,0-6.8,0-10.2,0c0,0,0,0,0,0c3.5,0,6.9,0,10.4,0
		C1157.8,1371.3,1157.7,1371.3,1157.7,1371.3z"/>
	<path class="st3" d="M1114.2,1371.3c3.5,0,7,0,10.5,0c0,0,0,0,0,0.1c-3.4,0-6.8,0-10.3,0
		C1114.3,1371.4,1114.3,1371.4,1114.2,1371.3z"/>
	<path class="st3" d="M256.7,1371.4c-3.1,0-6.1,0-9.2,0c0,0,0,0,0,0c3.3,0,6.5,0,9.8,0C257.1,1371.4,256.9,1371.4,256.7,1371.4z"/>
	<ellipse class="st3" cx="284.8" cy="1371.4" rx="7.4" ry="0"/>
	<path class="st3" d="M312.1,1504.6c3.3,0,6.6,0,9.9,0c0,0,0,0.1,0,0.1c-3.3,0-6.6,0-9.9,0C312.1,1504.7,312.1,1504.6,312.1,1504.6z
		"/>
	<ellipse class="st3" cx="350.1" cy="1371.4" rx="7.4" ry="0"/>
	<ellipse class="st3" cx="382" cy="1371.4" rx="7.4" ry="0"/>
	<path class="st3" d="M344.4,1504.6c4.3,0,7.6,0,10.8,0c0,0,0,0.1,0,0.1c-3.1,0-6.2,0-9.3,0c-0.2,0-0.4-0.1-0.6-0.1
		C345.4,1504.6,345.5,1504.6,344.4,1504.6z"/>
	<path class="st3" d="M213,1504.6c3.5,0,6.9,0,10.4,0c0,0,0,0.1,0,0.1C219.9,1504.7,216.4,1504.7,213,1504.6
		C212.9,1504.6,213,1504.6,213,1504.6z"/>
	<path class="st3" d="M744.3,1504.6c-3.3,0-6.5,0-9.8,0c0,0,0,0,0-0.1c3.3,0,6.7,0,10,0C744.4,1504.6,744.4,1504.6,744.3,1504.6z"/>
	<path class="st3" d="M670,1371.3c3,0,6.1,0,9.1,0c0,0,0,0,0,0c-3.2,0-6.5,0-9.7,0C669.6,1371.3,669.8,1371.3,670,1371.3z"/>
	<path class="st3" d="M278.5,1504.6c3.3,0,6.5,0,9.8,0c0,0,0,0,0,0c-3.2,0-6.4,0-9.6,0C278.6,1504.6,278.6,1504.6,278.5,1504.6z"/>
	<path class="st3" d="M744.2,1371.4c-3.3,0-6.5,0-9.8,0c0,0,0,0,0-0.1c3.3,0,6.7,0,10,0C744.4,1371.3,744.3,1371.4,744.2,1371.4z"/>
	<path class="st3" d="M766.2,1371.4c3.5,0,7,0,10.5,0c0,0,0,0,0,0C773.2,1371.4,769.7,1371.4,766.2,1371.4
		C766.2,1371.4,766.2,1371.4,766.2,1371.4z"/>
	<path class="st3" d="M961.6,1371.3c3.2,0,6.5,0,9.7,0c0,0,0,0,0,0.1c-3.2,0-6.4,0-9.6,0C961.7,1371.4,961.6,1371.3,961.6,1371.3z"
		/>
	<ellipse class="st3" cx="838.1" cy="1504.6" rx="7.4" ry="0"/>
	<path class="st3" d="M864.1,1371.3c3.3,0,6.6,0,10,0c0,0,0,0.1,0,0.1c-3.3,0-6.6,0-10,0C864.1,1371.4,864.1,1371.4,864.1,1371.3z"
		/>
	<path class="st3" d="M876.7,1504.7c-3.5,0-6.9,0-10.4,0c0,0,0,0,0-0.1C869.8,1504.6,873.2,1504.6,876.7,1504.7
		C876.7,1504.6,876.7,1504.7,876.7,1504.7z"/>
	<path class="st3" d="M1733.6,1371.4c-3.4,0-6.9,0-10.3,0c0,0,0-0.1,0-0.1C1726.8,1371.3,1730.2,1371.3,1733.6,1371.4
		C1733.7,1371.4,1733.7,1371.4,1733.6,1371.4z"/>
	<path class="st3" d="M1690.3,1371.3c3.4,0,6.9,0,10.3,0c0,0,0,0.1,0,0.1C1697.2,1371.4,1693.7,1371.4,1690.3,1371.3
		C1690.3,1371.4,1690.3,1371.3,1690.3,1371.3z"/>
	<path class="st3" d="M1666.9,1371.3c-3.4,0-6.8,0-10.2,0c0,0,0,0,0,0c3.5,0,6.9,0,10.4,0C1667.1,1371.3,1667,1371.3,1666.9,1371.3z
		"/>
	<path class="st3" d="M1633.2,1371.4c-3.3,0-6.6,0-10,0c0,0,0-0.1,0-0.1c3.3,0,6.6,0,10,0
		C1633.2,1371.3,1633.2,1371.4,1633.2,1371.4z"/>
	<ellipse class="st3" cx="1086" cy="1371.4" rx="7.4" ry="0.1"/>
	<path class="st3" d="M777.7,1504.7c-3.8,0-7,0-10.3,0c0,0,0-0.1,0-0.1c3.1,0,6.2,0,9.3,0c0.2,0,0.4,0.1,0.6,0.1
		C777.2,1504.7,777.2,1504.7,777.7,1504.7z"/>
	<path class="st3" d="M1381,1371.3c3.8,0,7,0,10.3,0c0,0,0,0.1,0,0.1c-3.1,0-6.2,0-9.3,0c-0.2,0-0.4-0.1-0.6-0.1
		C1381.4,1371.3,1381.5,1371.3,1381,1371.3z"/>
	<path class="st3" d="M1324.2,1371.4c-3.3,0-6.5,0-9.8,0c0,0,0,0,0,0c3.2,0,6.4,0,9.6,0C1324.1,1371.4,1324.2,1371.4,1324.2,1371.4z
		"/>
	<path class="st3" d="M1357.6,1371.4c-3.3,0-6.5,0-9.8,0c0,0,0,0,0,0c3.2,0,6.4,0,9.6,0C1357.4,1371.4,1357.5,1371.4,1357.6,1371.4z
		"/>
	<path class="st3" d="M1291,1371.4c-3.5,0-6.9,0-10.4,0c0,0,0-0.1,0-0.1C1284.1,1371.3,1287.6,1371.3,1291,1371.4
		C1291.1,1371.4,1291.1,1371.4,1291,1371.4z"/>
	<path class="st3" d="M1257.1,1371.4c-3.2,0-6.5,0-9.7,0c0,0,0,0,0-0.1c3.2,0,6.4,0,9.6,0C1257,1371.4,1257,1371.4,1257.1,1371.4z"
		/>
	<path class="st3" d="M1215.3,1371.3c3,0,6.1,0,9.1,0c0,0,0,0,0,0c-3.3,0-6.5,0-9.8,0C1214.9,1371.3,1215.1,1371.3,1215.3,1371.3z"
		/>
	<ellipse class="st3" cx="122.8" cy="1371.4" rx="6.5" ry="0.1"/>
	<path class="st3" d="M184.7,1624.2c0,2.8,0,5.6,0,8.4c0,0,0,0-0.1,0c0-2.8,0-5.6,0-8.3C184.7,1624.3,184.7,1624.3,184.7,1624.2z"/>
	<ellipse class="st3" cx="220.2" cy="1371.4" rx="6.3" ry="0"/>
	<path class="st3" d="M314,1371.3c2.6,0,5.3,0,7.9,0c0,0,0,0,0,0c-2.8,0-5.7,0-8.5,0C313.5,1371.3,313.7,1371.3,314,1371.3z"/>
	<path class="st3" d="M184.7,1662c0-2.6,0-5.2,0-7.8c0,0,0,0,0,0c0,2.8,0,5.6,0,8.5C184.6,1662.5,184.6,1662.2,184.7,1662z"/>
	<path class="st3" d="M799.8,1371.3c2.9,0,5.7,0,8.6,0c0,0,0,0,0,0c-2.8,0-5.6,0-8.5,0C799.9,1371.4,799.8,1371.4,799.8,1371.3z"/>
	<path class="st3" d="M702.5,1371.3c2.9,0,5.7,0,8.6,0c0,0,0,0,0,0c-2.8,0-5.7,0-8.5,0C702.5,1371.4,702.5,1371.4,702.5,1371.3z"/>
	<path class="st3" d="M189.9,1504.7c-4.1,0.4-4.1,0.4-5.1,3.7C185.6,1504.9,185.6,1504.9,189.9,1504.7z"/>
	<ellipse class="st3" cx="414.6" cy="1371.4" rx="6.5" ry="0"/>
	<path class="st3" d="M800.7,1504.7c3,0,6.1,0,9.1,0c0,0,0,0,0,0C806.8,1504.7,803.8,1504.7,800.7,1504.7
		C800.7,1504.7,800.7,1504.7,800.7,1504.7z"/>
	<path class="st3" d="M1174.3,1504.6c2.8,0,5.7,0,8.5,0c0,0,0,0,0,0.1c-2.9,0-5.8,0-8.7,0
		C1174.2,1504.7,1174.3,1504.6,1174.3,1504.6z"/>
	<path class="st3" d="M1204.6,1504.6c3.7,0,6.5,0,9.3,0c0,0,0,0.1,0,0.1c-2.7,0-5.4,0-8.1,0c-0.2,0-0.4-0.1-0.6-0.1
		C1205.4,1504.6,1205.4,1504.6,1204.6,1504.6z"/>
	<path class="st3" d="M1276.6,1504.6c-3,0-6,0-9,0c0,0,0,0,0,0C1270.6,1504.6,1273.6,1504.6,1276.6,1504.6
		C1276.6,1504.6,1276.6,1504.6,1276.6,1504.6z"/>
	<path class="st3" d="M1715.4,1504.7c-3.1,0-6.1,0-9.2,0c0,0,0,0,0-0.1C1709.2,1504.6,1712.3,1504.6,1715.4,1504.7
		C1715.4,1504.6,1715.4,1504.7,1715.4,1504.7z"/>
	<path class="st3" d="M1737.1,1504.6c2.9,0,5.7,0,8.6,0c0,0,0,0,0,0c-2.8,0-5.6,0-8.5,0C1737.2,1504.6,1737.2,1504.6,1737.1,1504.6z
		"/>
	<path class="st3" d="M1777.6,1504.7c-3.3,0-6.1,0-8.9,0c0,0,0-0.1,0-0.1c2.7,0,5.3,0,8,0c0.2,0,0.4,0.1,0.6,0.1
		C1777.3,1504.7,1777.2,1504.7,1777.6,1504.7z"/>
	<path class="st3" d="M1840.6,1504.6c-3.1,0-6.1,0-9.2,0c0,0,0,0,0,0C1834.5,1504.6,1837.5,1504.6,1840.6,1504.6
		C1840.6,1504.6,1840.6,1504.6,1840.6,1504.6z"/>
	<path class="st3" d="M938.1,1371.4c-3.7,0-6.5,0-9.4,0c0,0,0-0.1,0-0.1c2.7,0,5.4,0,8.1,0c0.2,0,0.4,0.1,0.6,0.1
		C937.3,1371.4,937.2,1371.4,938.1,1371.4z"/>
	<path class="st3" d="M184.7,1540.6c0-3.1,0-6.1,0-9.2c0,0,0,0,0,0C184.7,1534.5,184.7,1537.5,184.7,1540.6
		C184.7,1540.6,184.7,1540.6,184.7,1540.6z"/>
	<path class="st3" d="M896.8,1371.4c3,0,6,0,9,0c0,0,0,0,0,0C902.8,1371.4,899.8,1371.4,896.8,1371.4
		C896.8,1371.4,896.8,1371.4,896.8,1371.4z"/>
	<path class="st3" d="M1799.6,1504.6c3,0,6.1,0,9.1,0c0,0,0,0,0,0C1805.7,1504.7,1802.6,1504.7,1799.6,1504.6
		C1799.6,1504.7,1799.6,1504.7,1799.6,1504.6z"/>
	<path class="st3" d="M184.7,1562.4c0,3,0,5.9,0,8.9c0,0,0,0-0.1,0c0-3.1,0-6.1,0-9.2C184.7,1562.2,184.7,1562.3,184.7,1562.4z"/>
	<path class="st3" d="M184.7,1600.7c0-2.6,0-5.2,0-7.8c0,0,0,0,0,0c0,2.8,0,5.6,0,8.5C184.6,1601.1,184.6,1600.9,184.7,1600.7z"/>
	<path class="st3" d="M192.6,1371.4c-2.6,0-5.2,0-7.8,0c0,0,0,0,0,0C187.3,1371.3,189.9,1371.3,192.6,1371.4
		C192.5,1371.4,192.6,1371.4,192.6,1371.4z"/>
	<path class="st3" d="M1923.3,1371.3c2.6,0,5.1,0,7.7,0c0,0,0,0,0,0C1928.4,1371.4,1925.8,1371.4,1923.3,1371.3
		C1923.3,1371.4,1923.3,1371.4,1923.3,1371.3z"/>
	<ellipse class="st3" cx="1794" cy="1371.4" rx="5.6" ry="0.1"/>
	<path class="st3" d="M1823.2,1371.4c2.6,0,5.3,0,7.9,0c0,0,0,0,0,0C1828.5,1371.4,1825.9,1371.4,1823.2,1371.4
		C1823.2,1371.4,1823.2,1371.4,1823.2,1371.4z"/>
	<path class="st3" d="M246.1,1504.6c2.6,0,5.3,0,7.9,0c0,0,0,0,0,0.1c-2.6,0-5.1,0-7.7,0C246.2,1504.7,246.2,1504.7,246.1,1504.6z"
		/>
	<ellipse class="st3" cx="1241.9" cy="1504.6" rx="5.5" ry="0"/>
	<path class="st3" d="M1300.7,1504.6c2.6,0,5.2,0,7.8,0c0,0,0,0,0,0C1305.9,1504.7,1303.3,1504.7,1300.7,1504.6
		C1300.7,1504.6,1300.7,1504.6,1300.7,1504.6z"/>
	<path class="st3" d="M839.1,1371.4c-2.4,0-4.9,0-7.3,0c0,0,0-0.1,0-0.1C834.2,1371.3,836.7,1371.3,839.1,1371.4
		C839.1,1371.3,839.1,1371.4,839.1,1371.4z"/>
	<path class="st3" d="M1864.4,1371.4c-2.6,0-5.2,0-7.9,0c0,0,0,0,0-0.1C1859.2,1371.3,1861.9,1371.3,1864.4,1371.4
		C1864.5,1371.3,1864.4,1371.4,1864.4,1371.4z"/>
	<path class="st3" d="M1898,1371.4c-2.6,0-5.2,0-7.8,0c0,0,0,0,0,0C1892.8,1371.4,1895.4,1371.4,1898,1371.4
		C1898,1371.4,1898,1371.4,1898,1371.4z"/>
	<path class="st3" d="M645.7,1371.3c0.7,0,1.3,0.1,2.6,0.2c-1.3,0-1.9,0-2.5,0C645.8,1371.4,645.8,1371.3,645.7,1371.3z"/>
	<path class="st3" d="M96.1,1371.3c-0.7,0.1-1.1,0.1-1.5,0.1c-0.2,0-0.4,0-0.6,0c0.2,0,0.5-0.1,0.7-0.1
		C95.1,1371.3,95.5,1371.3,96.1,1371.3z"/>
	<path class="st3" d="M1958.4,1371.4c-0.3,0-0.7,0-1.1,0c-0.2,0-0.4-0.1-0.6-0.1c0.2,0,0.4,0,0.6,0
		C1957.7,1371.3,1958.1,1371.4,1958.4,1371.4z"/>
	<path class="st3" d="M1058.8,1371.3c-0.7,0.1-1.1,0.1-1.5,0.1c-0.2,0-0.4,0-0.6,0c0.2,0,0.5-0.1,0.7-0.1
		C1057.8,1371.3,1058.2,1371.3,1058.8,1371.3z"/>
	<path class="st3" d="M1149.6,1504.6c0.7,0,1.4,0,2.2,0c0,0,0,0,0,0.1C1151,1504.7,1150.3,1504.7,1149.6,1504.6
		C1149.6,1504.7,1149.6,1504.6,1149.6,1504.6z"/>
	<path class="st3" d="M1413.9,1371.2c0.4,0,0.8,0,1.2,0.1c0.2,0,0.4,0,0.6,0c-0.2,0-0.5,0.1-0.7,0.1
		C1414.6,1371.4,1414.2,1371.3,1413.9,1371.2z"/>
	<ellipse class="st3" cx="1600" cy="1371.4" rx="1.5" ry="0"/>
	<path class="st3" d="M899.3,1504.6c0.2,0,0.4,0,0.6,0c-0.2,0-0.4,0.1-0.6,0.1c-0.2,0-0.4,0-0.6,0
		C899,1504.7,899.2,1504.6,899.3,1504.6z"/>
	<path class="st3" d="M1861.7,1504.6C1862.4,1504.7,1862,1504.6,1861.7,1504.6C1862,1504.6,1862.4,1504.6,1861.7,1504.6z"/>
	<path class="st3" d="M712,1504.7c-0.2,0-0.4,0-0.6,0C711.6,1504.7,711.8,1504.7,712,1504.7z"/>
	<path class="st3" d="M1329.6,1504.5c0.4,0.1,0.8,0.1,1.2,0.2C1330.4,1504.7,1330,1504.6,1329.6,1504.5z"/>
	<path class="st3" d="M1682.9,1504.5c0.4,0.1,0.8,0.1,1.2,0.2C1683.7,1504.7,1683.3,1504.6,1682.9,1504.5z"/>
	<path class="st3" d="M378.4,1504.7C377.7,1504.6,378,1504.7,378.4,1504.7C378,1504.7,377.7,1504.6,378.4,1504.7z"/>
	<polygon class="st3" points="441.2,1371.3 441.7,1371.4 441.1,1371.4 	"/>
	<polygon class="st3" points="1422,1506.3 1421.8,1506 1422.2,1506.1 	"/>
	<path class="st2" d="M1464.9,1362c1.3,0.1,2.6,0.1,3.9,0.3c1.8,0.3,3.3,2.1,3.2,3.7c0,1.6-1.5,3.5-3.2,3.7c-2.6,0.2-5.3,0.2-7.9,0
		c-1.7-0.2-2.7-2.5-2.6-4.8c0.1-1.5,1.2-2.5,3.2-2.6c1.1-0.1,2.2,0,3.3,0C1464.9,1362.1,1464.9,1362,1464.9,1362z"/>
	<path class="st2" d="M549.9,1371.3c0,5.2-4.1,9-9.6,8.9c-5.5-0.1-9.8-3.9-9.9-8.8c-0.1-5.2,4.4-9.3,10.1-9.2
		C546.2,1362.3,550,1366,549.9,1371.3z"/>
	<path class="st2" d="M510.9,1371.2c-0.4,0-0.9,0-1.3,0c-3.8-0.3-5.6-3.6-3.8-7c0.4-0.7,1.2-1.6,1.9-1.6c2.6-0.2,5.2-0.3,7.8,0
		c2.2,0.3,3.5,2.2,3.5,4.1c0,1.9-1.5,3.6-3.6,4.2c-0.4,0.1-0.9,0.2-1.3,0.2C513.1,1371.1,512,1371.1,510.9,1371.2
		C510.9,1371.1,510.9,1371.1,510.9,1371.2z"/>
	<path class="st2" d="M1379.7,1504.5c-2.1,0-2.8,0-3.5,0c-4.4,0.1-5.1-4.9-3.5-7.3c0.3-0.5,0.9-1.2,1.5-1.2c2.8-0.1,5.7-0.3,8.5,0.1
		c1.8,0.2,3,2.1,3,3.9c0,1.8-1.1,3.5-2.9,4C1381.4,1504.4,1379.8,1504.5,1379.7,1504.5z"/>
	<path class="st2" d="M1498,1374c-2.8,1.5-5,1.2-7.2,1c-2.2-0.2-3.2-1.7-2.5-3.7c1-2.9,1.9-5.9,4.7-8.2
		C1496.7,1365.9,1497.8,1369.6,1498,1374z"/>
</g>
</svg>
